<?xml version="1.0" encoding="utf-8"?>
<!-- Generator: Adobe Illustrator 23.0.3, SVG Export Plug-In . SVG Version: 6.00 Build 0)  -->
<svg version="1.1" id="Layer_1" xmlns="http://www.w3.org/2000/svg" xmlns:xlink="http://www.w3.org/1999/xlink" x="0px" y="0px"
	 viewBox="0 0 1000 311.56" style="enable-background:new 0 0 1000 311.56;" xml:space="preserve">
<style type="text/css">
	.st0{fill:#1DCAD3;}
	.st1{fill:#36B0C9;}
	.st2{fill:#231F20;}
	.st3{fill:#FFFFFF;}
	.st4{fill:#9164CC;}
	.st5{clip-path:url(#SVGID_2_);fill:url(#SVGID_3_);}
	.st6{fill:#201747;}
	.st7{fill-rule:evenodd;clip-rule:evenodd;fill:#10CFC9;}
	.st8{clip-path:url(#SVGID_5_);fill:#231F20;}
	.st9{fill-rule:evenodd;clip-rule:evenodd;fill:#231F20;}
	.st10{clip-path:url(#SVGID_7_);fill:#FFFFFF;}
	.st11{fill-rule:evenodd;clip-rule:evenodd;fill:#FFFFFF;}
	.st12{fill:#8CCEAF;}
	.st13{fill:#008476;}
	.st14{fill:#25BCBD;}
	.st15{fill:#004D70;}
	.st16{fill:#20BBBB;}
	.st17{fill:#024D70;}
	.st18{fill-rule:evenodd;clip-rule:evenodd;fill:#F58B1F;}
	.st19{fill-rule:evenodd;clip-rule:evenodd;fill:#18335B;}
	.st20{clip-path:url(#SVGID_9_);}
	.st21{clip-path:url(#SVGID_11_);}
	.st22{fill:#18335B;}
	.st23{fill:#F58B1F;}
	.st24{clip-path:url(#SVGID_15_);}
	.st25{clip-path:url(#SVGID_17_);}
	.st26{clip-path:url(#SVGID_21_);}
	.st27{clip-path:url(#SVGID_23_);}
	.st28{clip-path:url(#SVGID_27_);}
	.st29{clip-path:url(#SVGID_29_);}
	.st30{clip-path:url(#SVGID_33_);}
	.st31{clip-path:url(#SVGID_35_);}
	.st32{clip-path:url(#SVGID_39_);}
	.st33{clip-path:url(#SVGID_41_);}
	.st34{fill:#416BA9;}
	.st35{fill:#73C3D5;}
	.st36{opacity:0.8;}
	.st37{fill:#3A3A3A;}
	.st38{fill:url(#SVGID_44_);}
	.st39{fill:none;stroke:#000000;stroke-width:6.3384;}
	.st40{fill:none;stroke:#000000;stroke-width:3.1692;}
	.st41{fill:#48494B;}
	.st42{fill:#C1986C;}
	.st43{fill:url(#SVGID_63_);}
	.st44{fill:url(#SVGID_64_);}
	.st45{fill:url(#SVGID_65_);}
	.st46{fill:url(#SVGID_66_);}
	.st47{fill:url(#SVGID_67_);}
	.st48{fill:#4D4E4E;}
	.st49{fill:#27B373;}
	.st50{fill:#5DC4CD;}
	.st51{fill:#1E8756;}
	.st52{fill:#3D1152;}
	.st53{fill:#922C48;}
	.st54{fill-rule:evenodd;clip-rule:evenodd;fill:#922C48;}
	.st55{fill:#404041;}
	.st56{fill:#EC1C24;}
	.st57{fill:#373A36;}
	.st58{fill:#808184;}
	.st59{fill:#262261;}
	.st60{fill:#6FCBDC;}
	.st61{fill:#2F3436;}
	.st62{fill:#5F97D0;}
	.st63{fill:#132428;}
	.st64{fill:#85C041;}
	.st65{fill:#677784;}
	.st66{fill:url(#SVGID_68_);}
	.st67{opacity:0.2;clip-path:url(#SVGID_70_);}
	.st68{fill:#FFFEFA;}
	.st69{opacity:0.1;}
	.st70{fill:url(#SVGID_71_);}
	.st71{opacity:0.3;}
	.st72{opacity:0.08;}
	.st73{opacity:0.1;fill:url(#Wordmark_1_);}
	.st74{fill:url(#SVGID_104_);}
	.st75{opacity:0.6;fill:url(#SVGID_107_);}
	.st76{opacity:0.4;}
	.st77{fill:url(#SVGID_110_);}
	.st78{opacity:0.6;fill:url(#SVGID_113_);}
	.st79{fill:url(#SVGID_116_);}
	.st80{opacity:0.6;fill:url(#SVGID_119_);}
	.st81{fill:url(#SVGID_122_);}
	.st82{opacity:0.6;fill:url(#SVGID_125_);}
	.st83{fill:url(#SVGID_128_);}
	.st84{opacity:0.6;fill:url(#SVGID_131_);}
	.st85{fill:#221F1F;}
	.st86{fill:none;}
	.st87{fill:#00416B;}
	.st88{opacity:0.8;fill:url(#XMLID_323_);}
	.st89{fill:#4197CB;}
	.st90{fill:#003E52;}
	.st91{fill:#3F96B4;}
	.st92{fill:#B9DBE5;}
	.st93{opacity:0.3;fill:#231F20;}
	.st94{opacity:0.3;fill:#FFFFFF;}
	.st95{fill:#050013;}
	.st96{fill:#E87200;}
	.st97{fill:#FCB813;}
	.st98{fill:#3D3935;}
	.st99{fill:#FFB600;}
	.st100{fill:#FCB814;}
	.st101{fill:#F48120;}
	.st102{fill:#EF4E25;}
	.st103{fill:#ED3024;}
	.st104{fill:#E0592A;}
	.st105{fill:#00ADBB;}
	.st106{fill:#00829B;}
	.st107{fill:#93D500;}
	.st108{fill:#4D5A31;}
	.st109{fill:#6BA43A;}
	.st110{fill:#424143;}
	.st111{fill-rule:evenodd;clip-rule:evenodd;fill:#C7E6B4;}
	.st112{fill-rule:evenodd;clip-rule:evenodd;fill:#5A9891;}
	.st113{fill-rule:evenodd;clip-rule:evenodd;fill:#127870;}
	.st114{fill-rule:evenodd;clip-rule:evenodd;fill:#5CCFD5;}
	.st115{fill-rule:evenodd;clip-rule:evenodd;fill:#ACD5CD;}
	.st116{fill-rule:evenodd;clip-rule:evenodd;fill:#B5ECC9;}
	.st117{fill-rule:evenodd;clip-rule:evenodd;fill:#A1D683;}
	.st118{fill-rule:evenodd;clip-rule:evenodd;fill:#DEF0D3;}
	.st119{fill-rule:evenodd;clip-rule:evenodd;fill:#91B9B4;}
	.st120{fill-rule:evenodd;clip-rule:evenodd;fill:#006860;}
	.st121{fill-rule:evenodd;clip-rule:evenodd;fill:#00ADBB;}
	.st122{fill-rule:evenodd;clip-rule:evenodd;fill:#B4E7E9;}
	.st123{fill-rule:evenodd;clip-rule:evenodd;fill:#007565;}
	.st124{fill-rule:evenodd;clip-rule:evenodd;fill:#00CE7C;}
	.st125{fill-rule:evenodd;clip-rule:evenodd;fill:#5FD896;}
	.st126{fill:#007DA5;}
	.st127{fill:#313032;}
	.st128{fill:#24272A;}
	.st129{fill:#00AFAA;}
	.st130{fill:#66C9BA;}
	.st131{fill:#0069A7;}
	.st132{fill:#002F87;}
	.st133{fill:#8BC53F;}
	.st134{fill:#1A1A1A;}
	.st135{fill:#0095D6;}
	.st136{fill:#003F5F;}
	.st137{fill:#2D317C;}
	.st138{fill:#41BFBF;}
	.st139{fill:#293C97;}
	.st140{fill:#52C2BD;}
	.st141{fill:url(#SVGID_134_);}
	.st142{fill:url(#SVGID_135_);}
	.st143{fill:url(#SVGID_136_);}
	.st144{fill:#0DBEEA;}
	.st145{fill:#097EC2;}
	.st146{fill:#133C63;}
	.st147{fill:#3B91CF;}
	.st148{fill:#C8DEE8;}
	.st149{fill:#629BBA;}
	.st150{fill:#F8BE19;}
	.st151{fill:url(#SVGID_137_);}
	.st152{fill:url(#SVGID_138_);}
	.st153{fill:url(#SVGID_139_);}
	.st154{fill:#00233B;}
	.st155{fill:url(#SVGID_140_);}
	.st156{fill:url(#SVGID_141_);}
	.st157{fill:url(#SVGID_142_);}
	.st158{fill:url(#SVGID_143_);}
	.st159{fill:url(#SVGID_144_);}
	.st160{fill:url(#SVGID_145_);}
	.st161{fill:url(#SVGID_146_);}
	.st162{fill:url(#SVGID_147_);}
	.st163{fill:url(#SVGID_148_);}
	.st164{fill:url(#SVGID_149_);}
	.st165{fill:url(#SVGID_150_);}
	.st166{fill:url(#SVGID_151_);}
	.st167{fill:url(#SVGID_152_);}
	.st168{fill:url(#SVGID_153_);}
	.st169{fill:url(#SVGID_154_);}
	.st170{fill:url(#SVGID_155_);}
	.st171{fill:url(#SVGID_156_);}
	.st172{fill:url(#SVGID_157_);}
	.st173{fill:url(#SVGID_158_);}
	.st174{fill:url(#SVGID_159_);}
	.st175{fill:url(#SVGID_160_);}
	.st176{fill:url(#SVGID_161_);}
	.st177{fill:url(#SVGID_162_);}
	.st178{fill:url(#SVGID_163_);}
	.st179{fill:url(#SVGID_164_);}
	.st180{fill:url(#SVGID_165_);}
	.st181{fill:url(#SVGID_166_);}
	.st182{fill:url(#SVGID_167_);}
	.st183{fill:url(#SVGID_168_);}
	.st184{fill:url(#SVGID_169_);}
	.st185{fill:url(#SVGID_170_);}
	.st186{fill:url(#SVGID_171_);}
	.st187{fill:url(#SVGID_172_);}
	.st188{fill:url(#SVGID_173_);}
	.st189{fill:url(#SVGID_174_);}
	.st190{fill:url(#SVGID_175_);}
	.st191{fill:url(#SVGID_176_);}
	.st192{fill:url(#SVGID_177_);}
	.st193{fill:url(#SVGID_178_);}
	.st194{fill:#C31230;}
	.st195{fill:#807F82;}
	.st196{fill-rule:evenodd;clip-rule:evenodd;fill:#C31230;}
	.st197{fill-rule:evenodd;clip-rule:evenodd;fill:#807F82;}
	.st198{fill:#2D2D2D;}
	.st199{display:none;fill:#2D2D2D;}
	.st200{fill:#D11F3C;}
	.st201{fill:#E42C4C;stroke:#E42C4C;stroke-width:1.0503;stroke-miterlimit:10;}
	.st202{display:none;fill:#231F20;}
	.st203{display:none;fill:#FFFFFF;}
	.st204{fill:#FF7F30;}
	.st205{opacity:0.3;fill:#FF7F30;}
	.st206{opacity:0.6;fill:#FF7F30;}
	.st207{opacity:0.7;fill:#FF7F30;}
	.st208{fill:#221C35;}
	.st209{fill:#1B98D5;}
	.st210{fill:#173963;}
	.st211{fill:#009ADE;}
	.st212{fill:#003764;}
	.st213{fill:#2A7DE1;}
	.st214{opacity:0.4;clip-path:url(#XMLID_324_);fill:#221F1F;}
	.st215{fill:#002A3A;}
	.st216{fill:#0033A1;}
	.st217{fill:url(#SVGID_179_);}
	.st218{fill:url(#SVGID_180_);}
	.st219{fill:url(#SVGID_181_);}
	.st220{fill:url(#SVGID_182_);}
	.st221{fill:#007EC4;}
	.st222{fill-rule:evenodd;clip-rule:evenodd;fill:url(#SVGID_183_);}
	.st223{fill-rule:evenodd;clip-rule:evenodd;fill:#E6E7E8;}
	.st224{fill:#009345;}
	.st225{fill:#BBBCB8;}
	.st226{fill:#72C0EB;}
	.st227{fill:#939598;}
	.st228{fill-rule:evenodd;clip-rule:evenodd;fill:#2CB8EB;}
	.st229{fill:#2CB8EB;}
	.st230{fill:#81B83A;}
	.st231{fill-rule:evenodd;clip-rule:evenodd;fill:#81B83A;}
	.st232{enable-background:new    ;}
	.st233{fill:#FF6F3E;}
	.st234{fill:#12143D;}
	.st235{fill:url(#SVGID_184_);}
	.st236{fill:url(#SVGID_185_);}
	.st237{fill:url(#SVGID_186_);}
	.st238{fill:url(#SVGID_187_);}
	.st239{fill:url(#SVGID_188_);}
	.st240{fill:url(#SVGID_189_);}
	.st241{fill:url(#SVGID_190_);}
	.st242{fill:url(#SVGID_191_);}
	.st243{fill:url(#SVGID_192_);}
	.st244{fill:#7C51A0;}
	.st245{fill:#9F66A9;}
	.st246{fill:#9F80B9;}
	.st247{fill:url(#SVGID_193_);}
	.st248{fill:url(#SVGID_194_);}
	.st249{fill:url(#SVGID_195_);}
	.st250{fill:url(#SVGID_196_);}
	.st251{fill:#2D3136;}
	.st252{fill:#76777A;}
	.st253{fill:#A7A8A9;}
	.st254{fill:#0082CA;}
	.st255{fill:#FFB259;}
	.st256{fill:#385CAD;}
	.st257{fill:#7BA0C4;}
	.st258{fill:#EBA900;}
	.st259{fill:#929497;}
	.st260{opacity:0.7;fill:#FFFFFF;}
	.st261{fill:#016BAF;}
	.st262{fill:#343432;}
	.st263{fill:#6D6E70;}
	.st264{fill:#F4B01B;}
	.st265{fill:#293271;}
	.st266{fill:#A1D33C;}
	.st267{fill:#212322;}
	.st268{fill:#0047BA;}
	.st269{fill:#969CDE;}
	.st270{fill:#047BC1;}
	.st271{fill:url(#SVGID_197_);}
	.st272{fill:url(#SVGID_198_);}
	.st273{fill:url(#SVGID_199_);}
	.st274{fill:url(#SVGID_200_);}
	.st275{fill:url(#SVGID_201_);}
	.st276{fill:url(#SVGID_202_);}
	.st277{fill:url(#SVGID_203_);}
	.st278{fill:#13517C;}
	.st279{fill:#0077A6;}
	.st280{fill:none;stroke:#231F20;stroke-width:5.9036;stroke-miterlimit:10;}
	.st281{fill:#00A94F;}
	.st282{fill:none;stroke:#231F20;stroke-width:3.2172;stroke-miterlimit:10;}
	.st283{fill:#59595C;}
	.st284{opacity:0.349;fill:#F9AE19;}
	.st285{opacity:0.349;fill:#E99F22;}
	.st286{opacity:0.349;fill:#E47D25;}
	.st287{fill:#F9AE19;}
	.st288{fill:#E99F22;}
	.st289{fill:#F09B20;}
	.st290{fill:#E47D25;}
	.st291{fill:#E89223;}
	.st292{opacity:0.651;fill:#F9AE19;}
	.st293{fill:#E68825;}
	.st294{opacity:0.651;fill:#E99F22;}
	.st295{fill:#EB8D23;}
	.st296{opacity:0.7725;fill:#EF9B21;}
	.st297{opacity:0.651;fill:#E47D25;}
	.st298{opacity:0.7725;fill:#EA9622;}
	.st299{fill:url(#SVGID_204_);}
	.st300{fill:#55575B;}
	.st301{fill:#EE424E;}
	.st302{fill:#34424B;}
</style>
<g>
	<path id="XMLID_1110_" class="st213" d="M182.34,54.51l-74.96-43.28c-5.67-3.28-12.66-3.28-18.34,0L14.09,54.51
		c-5.67,3.28-9.17,9.33-9.17,15.88v86.55c0,6.55,3.49,12.6,9.17,15.88l74.96,43.28c5.67,3.28,12.66,3.28,18.34,0l74.96-43.28
		c5.67-3.28,9.17-9.33,9.17-15.88V70.38C191.51,63.83,188.02,57.78,182.34,54.51z"/>
	<g id="XMLID_1107_">
		<defs>
			<path id="XMLID_1108_" d="M182.34,54.51l-74.96-43.28c-5.67-3.28-12.66-3.28-18.34,0L14.09,54.51
				c-5.67,3.28-9.17,9.33-9.17,15.88v86.55c0,6.55,3.49,12.6,9.17,15.88l74.96,43.28c5.67,3.28,12.66,3.28,18.34,0l74.96-43.28
				c5.67-3.28,9.17-9.33,9.17-15.88V70.38C191.51,63.83,188.02,57.78,182.34,54.51z"/>
		</defs>
		<clipPath id="XMLID_323_">
			<use xlink:href="#XMLID_1108_"  style="overflow:visible;"/>
		</clipPath>
		<polygon id="XMLID_1109_" style="opacity:0.4;clip-path:url(#XMLID_323_);fill:#221F1F;" points="305.17,214.76 305.17,214.7 
			305.03,214.62 305.03,214.56 304.89,214.48 304.89,214.42 304.75,214.34 304.75,214.28 304.6,214.2 304.6,214.14 304.46,214.06 
			304.46,214 304.32,213.92 304.32,213.86 304.18,213.78 304.18,213.72 304.04,213.64 304.04,213.58 303.9,213.5 303.9,213.44 
			303.76,213.36 303.76,213.3 303.62,213.22 303.62,213.16 303.48,213.08 303.48,213.02 303.34,212.94 303.34,212.88 303.2,212.8 
			303.2,212.74 303.06,212.66 303.06,212.6 302.92,212.52 302.92,212.46 302.78,212.38 302.78,212.32 302.64,212.24 302.64,212.18 
			302.5,212.1 302.5,212.04 302.36,211.96 302.36,211.9 302.22,211.82 302.22,211.76 302.08,211.68 302.08,211.62 301.94,211.54 
			301.94,211.48 301.8,211.4 301.8,211.34 301.66,211.26 301.66,211.2 301.52,211.12 301.52,211.06 301.38,210.98 301.38,210.92 
			301.24,210.84 301.24,210.78 301.1,210.7 301.1,210.64 300.96,210.56 300.96,210.5 300.82,210.42 300.82,210.36 300.68,210.28 
			300.68,210.22 300.54,210.14 300.54,210.08 300.4,210 300.4,209.94 300.26,209.86 300.26,209.8 300.12,209.72 300.12,209.66 
			299.98,209.58 299.98,209.52 299.84,209.44 299.84,209.38 299.7,209.3 299.7,209.24 299.56,209.16 299.56,209.1 299.42,209.02 
			299.42,208.96 299.28,208.88 299.28,208.82 299.14,208.74 299.14,208.68 299,208.6 299,208.54 298.86,208.46 298.86,208.4 
			298.72,208.32 298.72,208.26 298.58,208.18 298.58,208.12 298.44,208.04 298.44,207.98 298.3,207.9 298.3,207.84 298.16,207.76 
			298.16,207.7 298.02,207.62 298.02,207.56 297.88,207.48 297.88,207.42 297.74,207.34 297.74,207.28 297.6,207.2 297.6,207.14 
			297.46,207.06 297.46,207 297.32,206.92 297.32,206.86 297.18,206.78 297.18,206.72 297.04,206.64 297.04,206.58 296.9,206.5 
			296.9,206.44 296.76,206.36 296.76,206.3 296.62,206.22 296.62,206.16 296.48,206.08 296.48,206.02 296.34,205.94 296.34,205.88 
			296.2,205.8 296.2,205.74 296.06,205.66 296.06,205.6 295.92,205.52 295.92,205.46 295.78,205.38 295.78,205.32 295.64,205.23 
			295.64,205.18 295.5,205.09 295.5,205.04 295.36,204.95 295.36,204.9 295.22,204.81 295.22,204.76 295.08,204.67 295.08,204.62 
			294.94,204.53 294.94,204.48 294.8,204.39 294.8,204.34 294.66,204.25 294.66,204.2 294.52,204.11 294.52,204.06 294.38,203.97 
			294.38,203.92 294.24,203.83 294.24,203.78 294.1,203.69 294.1,203.64 293.96,203.55 293.96,203.49 293.82,203.41 293.82,203.35 
			293.68,203.27 293.68,203.21 293.54,203.13 293.54,203.07 293.4,202.99 293.4,202.93 293.26,202.85 293.26,202.79 293.12,202.71 
			293.12,202.65 292.98,202.57 292.98,202.51 292.84,202.43 292.84,202.37 292.7,202.29 292.7,202.23 292.56,202.15 292.56,202.09 
			292.42,202.01 292.42,201.95 292.28,201.87 292.28,201.81 292.14,201.73 292.14,201.67 292,201.59 292,201.53 291.86,201.45 
			291.86,201.39 291.72,201.31 291.72,201.25 291.58,201.17 291.58,201.11 291.44,201.03 291.44,200.97 291.3,200.89 291.3,200.83 
			291.16,200.75 291.16,200.69 291.02,200.61 291.02,200.55 290.88,200.47 290.88,200.41 290.74,200.33 290.74,200.27 290.6,200.19 
			290.6,200.13 290.46,200.05 290.46,199.99 290.32,199.91 290.32,199.85 290.18,199.77 290.18,199.71 290.04,199.63 290.04,199.57 
			289.9,199.49 289.9,199.43 289.76,199.35 289.76,199.29 289.62,199.21 289.62,199.15 289.48,199.07 289.48,199.01 289.34,198.93 
			289.34,198.87 289.2,198.79 289.2,198.73 289.06,198.65 289.06,198.59 288.92,198.51 288.92,198.45 288.78,198.37 288.78,198.31 
			288.64,198.23 288.64,198.17 288.5,198.09 288.5,198.03 288.36,197.95 288.36,197.89 288.22,197.81 288.22,197.75 288.08,197.67 
			288.08,197.61 287.94,197.53 287.94,197.47 287.8,197.39 287.8,197.33 287.66,197.25 287.66,197.19 287.52,197.11 287.52,197.05 
			287.38,196.97 287.38,196.91 287.24,196.83 287.24,196.77 287.1,196.69 287.1,196.63 286.96,196.55 286.96,196.49 286.82,196.41 
			286.82,196.35 286.68,196.27 286.68,196.21 286.54,196.13 286.54,196.07 286.4,195.99 286.4,195.93 286.26,195.85 286.26,195.79 
			286.12,195.71 286.12,195.65 285.98,195.57 285.98,195.51 285.84,195.43 285.84,195.37 285.7,195.29 285.7,195.23 285.56,195.15 
			285.56,195.09 285.42,195.01 285.42,194.95 285.28,194.87 285.28,194.81 285.14,194.73 285.14,194.67 285,194.59 285,194.53 
			284.86,194.45 284.86,194.39 284.72,194.31 284.72,194.25 284.58,194.17 284.58,194.11 284.44,194.03 284.44,193.97 284.3,193.89 
			284.3,193.83 284.16,193.75 284.16,193.69 284.02,193.61 284.02,193.55 283.88,193.47 283.88,193.41 283.74,193.33 283.74,193.27 
			283.6,193.19 283.6,193.13 283.46,193.05 283.46,192.99 283.32,192.91 283.32,192.85 283.18,192.77 283.18,192.71 283.04,192.63 
			283.04,192.57 282.9,192.49 282.9,192.43 282.76,192.35 282.76,192.29 282.62,192.21 282.62,192.15 282.48,192.07 282.48,192.01 
			282.34,191.93 282.34,191.87 282.2,191.79 282.2,191.73 282.06,191.65 282.06,191.59 281.92,191.51 281.92,191.45 281.78,191.37 
			281.78,191.31 281.64,191.23 281.64,191.17 281.5,191.09 281.5,191.03 281.36,190.95 281.36,190.89 281.22,190.81 281.22,190.75 
			281.08,190.67 281.08,190.61 280.93,190.53 280.93,190.47 280.79,190.39 280.79,190.33 280.65,190.25 280.65,190.19 
			280.51,190.11 280.51,190.05 280.37,189.97 280.37,189.91 280.23,189.83 280.23,189.77 280.09,189.69 280.09,189.63 
			279.95,189.55 279.95,189.49 279.81,189.41 279.81,189.35 279.67,189.27 279.67,189.21 279.53,189.13 279.53,189.07 
			279.39,188.99 279.39,188.93 279.25,188.85 279.25,188.79 279.11,188.71 279.11,188.65 278.97,188.57 278.97,188.51 
			278.83,188.43 278.83,188.37 278.69,188.29 278.69,188.23 278.55,188.15 278.55,188.09 278.41,188.01 278.41,187.95 
			278.27,187.87 278.27,187.81 278.13,187.73 278.13,187.67 277.99,187.59 277.99,187.53 277.85,187.45 277.85,187.39 
			277.71,187.31 277.71,187.25 277.57,187.17 277.57,187.11 277.43,187.03 277.43,186.97 277.29,186.89 277.29,186.83 
			277.15,186.75 277.15,186.69 277.01,186.61 277.01,186.55 276.87,186.47 276.87,186.41 276.73,186.33 276.73,186.27 
			276.59,186.19 276.59,186.13 276.45,186.05 276.45,185.99 276.31,185.91 276.31,185.85 276.17,185.77 276.17,185.71 
			276.03,185.63 276.03,185.57 275.89,185.49 275.89,185.43 275.75,185.35 275.75,185.29 275.61,185.21 275.61,185.15 
			275.47,185.07 275.47,185.01 275.33,184.93 275.33,184.87 275.19,184.79 275.19,184.73 275.05,184.65 275.05,184.59 
			274.91,184.51 274.91,184.45 274.77,184.37 274.77,184.31 274.63,184.23 274.63,184.17 274.49,184.09 274.49,184.03 
			274.35,183.95 274.35,183.89 274.21,183.81 274.21,183.75 274.07,183.67 274.07,183.61 273.93,183.53 273.93,183.47 
			273.79,183.39 273.79,183.33 273.65,183.25 273.65,183.19 273.51,183.11 273.51,183.05 273.37,182.97 273.37,182.91 
			273.23,182.83 273.23,182.77 273.09,182.69 273.09,182.63 272.95,182.55 272.95,182.49 272.81,182.41 272.81,182.35 
			272.67,182.27 272.67,182.21 272.53,182.13 272.53,182.07 272.39,181.99 272.39,181.93 272.25,181.85 272.25,181.79 
			272.11,181.71 272.11,181.65 271.97,181.56 271.97,181.51 271.83,181.42 271.83,181.37 271.69,181.28 271.69,181.23 
			271.55,181.14 271.55,181.09 271.41,181 271.41,180.95 271.27,180.86 271.27,180.81 271.13,180.72 271.13,180.67 270.99,180.58 
			270.99,180.53 270.85,180.44 270.85,180.39 270.71,180.3 270.71,180.25 270.57,180.16 270.57,180.11 270.43,180.02 270.43,179.97 
			270.29,179.88 270.29,179.83 270.15,179.74 270.15,179.68 270.01,179.6 270.01,179.54 269.87,179.46 269.87,179.4 269.73,179.32 
			269.73,179.26 269.59,179.18 269.59,179.12 269.45,179.04 269.45,178.98 269.31,178.9 269.31,178.84 269.17,178.76 269.17,178.7 
			269.03,178.62 269.03,178.56 268.89,178.48 268.89,178.42 268.75,178.34 268.75,178.28 268.61,178.2 268.61,178.14 268.47,178.06 
			268.47,178 268.33,177.92 268.33,177.86 268.19,177.78 268.19,177.72 268.05,177.64 268.05,177.58 267.91,177.5 267.91,177.44 
			267.77,177.36 267.77,177.3 267.63,177.22 267.63,177.16 267.49,177.08 267.49,177.02 267.35,176.94 267.35,176.88 267.21,176.8 
			267.21,176.74 267.07,176.66 267.07,176.6 266.93,176.52 266.93,176.46 266.79,176.38 266.79,176.32 266.65,176.24 266.65,176.18 
			266.51,176.1 266.51,176.04 266.37,175.96 266.37,175.9 266.23,175.82 266.23,175.76 266.09,175.68 266.09,175.62 265.95,175.54 
			265.95,175.48 265.81,175.4 265.81,175.34 265.67,175.26 265.67,175.2 265.53,175.12 265.53,175.06 265.39,174.98 265.39,174.92 
			265.25,174.84 265.25,174.78 265.11,174.7 265.11,174.64 264.97,174.56 264.97,174.5 264.83,174.42 264.83,174.36 264.69,174.28 
			264.69,174.22 264.55,174.14 264.55,174.08 264.41,174 264.41,173.94 264.27,173.86 264.27,173.8 264.13,173.72 264.13,173.66 
			263.99,173.58 263.99,173.52 263.85,173.44 263.85,173.38 263.71,173.3 263.71,173.24 263.57,173.16 263.57,173.1 263.43,173.02 
			263.43,172.96 263.29,172.88 263.29,172.82 263.15,172.74 263.15,172.68 263.01,172.6 263.01,172.54 262.87,172.46 262.87,172.4 
			262.73,172.32 262.73,172.26 262.59,172.18 262.59,172.12 262.45,172.04 262.45,171.98 262.31,171.9 262.31,171.84 262.17,171.76 
			262.17,171.7 262.03,171.62 262.03,171.56 261.89,171.48 261.89,171.42 261.75,171.34 261.75,171.28 261.61,171.2 261.61,171.14 
			261.47,171.06 261.47,171 261.33,170.92 261.33,170.86 261.19,170.78 261.19,170.72 261.05,170.64 261.05,170.58 260.91,170.5 
			260.91,170.44 260.77,170.36 260.77,170.3 260.63,170.22 260.63,170.16 260.49,170.08 260.49,170.02 260.35,169.94 260.35,169.88 
			260.21,169.8 260.21,169.74 260.07,169.66 260.07,169.6 259.93,169.52 259.93,169.46 259.79,169.38 259.79,169.32 259.65,169.24 
			259.65,169.18 259.51,169.1 259.51,169.04 259.37,168.96 259.37,168.9 259.23,168.82 259.23,168.76 259.09,168.68 259.09,168.62 
			258.95,168.54 258.95,168.48 258.81,168.4 258.81,168.34 258.67,168.26 258.67,168.2 258.53,168.12 258.53,168.06 258.39,167.98 
			258.39,167.92 258.25,167.84 258.25,167.78 258.11,167.7 258.11,167.64 257.97,167.56 257.97,167.5 257.83,167.42 257.83,167.36 
			257.69,167.28 257.69,167.22 257.55,167.14 257.55,167.08 257.41,167 257.41,166.94 257.27,166.86 257.27,166.8 257.12,166.72 
			257.12,166.66 256.98,166.58 256.98,166.52 256.84,166.44 256.84,166.38 256.7,166.3 256.7,166.24 256.56,166.16 256.56,166.1 
			256.42,166.02 256.42,165.96 256.28,165.88 256.28,165.82 256.14,165.74 256.14,165.68 256,165.6 256,165.54 255.86,165.46 
			255.86,165.4 255.72,165.32 255.72,165.26 255.58,165.18 255.58,165.12 255.44,165.04 255.44,164.98 255.3,164.9 255.3,164.84 
			255.16,164.76 255.16,164.7 255.02,164.62 255.02,164.56 254.88,164.48 254.88,164.42 254.74,164.34 254.74,164.28 254.6,164.2 
			254.6,164.14 254.46,164.06 254.46,164 254.32,163.92 254.32,163.86 254.18,163.78 254.18,163.72 254.04,163.64 254.04,163.58 
			253.9,163.5 253.9,163.44 253.76,163.36 253.76,163.3 253.62,163.22 253.62,163.16 253.48,163.08 253.48,163.02 253.34,162.94 
			253.34,162.88 253.2,162.8 253.2,162.74 253.06,162.66 253.06,162.6 252.92,162.52 252.92,162.46 252.78,162.38 252.78,162.32 
			252.64,162.24 252.64,162.18 252.5,162.1 252.5,162.04 252.36,161.96 252.36,161.9 252.22,161.82 252.22,161.76 252.08,161.68 
			252.08,161.62 251.94,161.54 251.94,161.48 251.8,161.4 251.8,161.34 251.66,161.26 251.66,161.2 251.52,161.12 251.52,161.06 
			251.38,160.98 251.38,160.92 251.24,160.84 251.24,160.78 251.1,160.7 251.1,160.64 250.96,160.56 250.96,160.5 250.82,160.42 
			250.82,160.36 250.68,160.28 250.68,160.22 250.54,160.14 250.54,160.08 250.4,160 250.4,159.94 250.26,159.86 250.26,159.8 
			250.12,159.72 250.12,159.66 249.98,159.58 249.98,159.52 249.84,159.44 249.84,159.38 249.7,159.3 249.7,159.24 249.56,159.16 
			249.56,159.1 249.42,159.02 249.42,158.96 249.28,158.88 249.28,158.82 249.14,158.74 249.14,158.68 249,158.6 249,158.54 
			248.86,158.46 248.86,158.4 248.72,158.32 248.72,158.26 248.58,158.18 248.58,158.12 248.44,158.03 248.44,157.98 248.3,157.89 
			248.3,157.84 248.16,157.75 248.16,157.7 248.02,157.61 248.02,157.56 247.88,157.47 247.88,157.42 247.74,157.33 247.74,157.28 
			247.6,157.19 247.6,157.14 247.46,157.05 247.46,157 247.32,156.91 247.32,156.86 247.18,156.77 247.18,156.72 247.04,156.63 
			247.04,156.58 246.9,156.49 246.9,156.44 246.76,156.35 246.76,156.3 246.62,156.21 246.62,156.16 246.48,156.07 246.48,156.02 
			246.34,155.93 246.34,155.87 246.2,155.79 246.2,155.73 246.06,155.65 246.06,155.59 245.92,155.51 245.92,155.45 245.78,155.37 
			245.78,155.31 245.64,155.23 245.64,155.17 245.5,155.09 245.5,155.03 245.36,154.95 245.36,154.89 245.22,154.81 245.22,154.75 
			245.08,154.67 245.08,154.61 244.94,154.53 244.94,154.47 244.8,154.39 244.8,154.33 244.66,154.25 244.66,154.19 244.52,154.11 
			244.52,154.05 244.38,153.97 244.38,153.91 244.24,153.83 244.24,153.77 244.1,153.69 244.1,153.63 243.96,153.55 243.96,153.49 
			243.82,153.41 243.82,153.35 243.68,153.27 243.68,153.21 243.54,153.13 243.54,153.07 243.4,152.99 243.4,152.93 243.26,152.85 
			243.26,152.79 243.12,152.71 243.12,152.65 242.98,152.57 242.98,152.51 242.84,152.43 242.84,152.37 242.7,152.29 242.7,152.23 
			242.56,152.15 242.56,152.09 242.42,152.01 242.42,151.95 242.28,151.87 242.28,151.81 242.14,151.73 242.14,151.67 242,151.59 
			242,151.53 241.86,151.45 241.86,151.39 241.72,151.31 241.72,151.25 241.58,151.17 241.58,151.11 241.44,151.03 241.44,150.97 
			241.3,150.89 241.3,150.83 241.16,150.75 241.16,150.69 241.02,150.61 241.02,150.55 240.88,150.47 240.88,150.41 240.74,150.33 
			240.74,150.27 240.6,150.19 240.6,150.13 240.46,150.05 240.46,149.99 240.32,149.91 240.32,149.85 240.18,149.77 240.18,149.71 
			240.04,149.63 240.04,149.57 239.9,149.49 239.9,149.43 239.76,149.35 239.76,149.29 239.62,149.21 239.62,149.15 239.48,149.07 
			239.48,149.01 239.34,148.93 239.34,148.87 239.2,148.79 239.2,148.73 239.06,148.65 239.06,148.59 238.92,148.51 238.92,148.45 
			238.78,148.37 238.78,148.31 238.64,148.23 238.64,148.17 238.5,148.09 238.5,148.03 238.36,147.95 238.36,147.89 238.22,147.81 
			238.22,147.75 238.08,147.67 238.08,147.61 237.94,147.53 237.94,147.47 237.8,147.39 237.8,147.33 237.66,147.25 237.66,147.19 
			237.52,147.11 237.52,147.05 237.38,146.97 237.38,146.91 237.24,146.83 237.24,146.77 237.1,146.69 237.1,146.63 236.96,146.55 
			236.96,146.49 236.82,146.41 236.82,146.35 236.68,146.27 236.68,146.21 236.54,146.13 236.54,146.07 236.4,145.99 236.4,145.93 
			236.26,145.85 236.26,145.79 236.12,145.71 236.12,145.65 235.98,145.57 235.98,145.51 235.84,145.43 235.84,145.37 235.7,145.29 
			235.7,145.23 235.56,145.15 235.56,145.09 235.42,145.01 235.42,144.95 235.28,144.87 235.28,144.81 235.14,144.73 235.14,144.67 
			235,144.59 235,144.53 234.86,144.45 234.86,144.39 234.72,144.31 234.72,144.25 234.58,144.17 234.58,144.11 234.44,144.03 
			234.44,143.97 234.3,143.89 234.3,143.83 234.16,143.75 234.16,143.69 234.02,143.61 234.02,143.55 233.88,143.47 233.88,143.41 
			233.74,143.33 233.74,143.27 233.6,143.19 233.6,143.13 233.45,143.05 233.45,142.99 233.31,142.91 233.31,142.85 233.17,142.77 
			233.17,142.71 233.03,142.63 233.03,142.57 232.89,142.49 232.89,142.43 232.75,142.35 232.75,142.29 232.61,142.21 
			232.61,142.15 232.47,142.07 232.47,142.01 232.33,141.93 232.33,141.87 232.19,141.79 232.19,141.73 232.05,141.65 
			232.05,141.59 231.91,141.51 231.91,141.45 231.77,141.37 231.77,141.31 231.63,141.23 231.63,141.17 231.49,141.09 
			231.49,141.03 231.35,140.95 231.35,140.89 231.21,140.81 231.21,140.75 231.07,140.67 231.07,140.61 230.93,140.53 
			230.93,140.47 230.79,140.39 230.79,140.33 230.65,140.25 230.65,140.19 230.51,140.11 230.51,140.05 230.37,139.97 
			230.37,139.91 230.23,139.83 230.23,139.77 230.09,139.69 230.09,139.63 229.95,139.55 229.95,139.49 229.81,139.41 
			229.81,139.35 229.67,139.27 229.67,139.21 229.53,139.13 229.53,139.07 229.39,138.99 229.39,138.93 229.25,138.85 
			229.25,138.79 229.11,138.71 229.11,138.65 228.97,138.57 228.97,138.51 228.83,138.43 228.83,138.37 228.69,138.29 
			228.69,138.23 228.55,138.15 228.55,138.09 228.41,138.01 228.41,137.95 228.27,137.87 228.27,137.81 228.13,137.73 
			228.13,137.67 227.99,137.59 227.99,137.53 227.85,137.45 227.85,137.39 227.71,137.31 227.71,137.25 227.57,137.17 
			227.57,137.11 227.43,137.03 227.43,136.97 227.29,136.89 227.29,136.83 227.15,136.75 227.15,136.69 227.01,136.61 
			227.01,136.55 226.87,136.47 226.87,136.41 226.73,136.33 226.73,136.27 226.59,136.19 226.59,136.13 226.45,136.05 
			226.45,135.99 226.31,135.91 226.31,135.85 226.17,135.77 226.17,135.71 226.03,135.63 226.03,135.57 225.89,135.49 
			225.89,135.43 225.75,135.35 225.75,135.29 225.61,135.21 225.61,135.15 225.47,135.07 225.47,135.01 225.33,134.93 
			225.33,134.87 225.19,134.79 225.19,134.73 225.05,134.65 225.05,134.59 224.91,134.51 224.91,134.45 224.77,134.37 
			224.77,134.31 224.63,134.22 224.63,134.17 224.49,134.08 224.49,134.03 224.35,133.94 224.35,133.89 224.21,133.8 224.21,133.75 
			224.07,133.66 224.07,133.61 223.93,133.52 223.93,133.47 223.79,133.38 223.79,133.33 223.65,133.24 223.65,133.19 223.51,133.1 
			223.51,133.05 223.37,132.96 223.37,132.91 223.23,132.82 223.23,132.77 223.09,132.68 223.09,132.63 222.95,132.54 
			222.95,132.49 222.81,132.4 222.81,132.34 222.67,132.26 222.67,132.2 222.53,132.12 222.53,132.06 222.39,131.98 222.39,131.92 
			222.25,131.84 222.25,131.78 222.11,131.7 222.11,131.64 221.97,131.56 221.97,131.5 221.83,131.42 221.83,131.36 221.69,131.28 
			221.69,131.22 221.55,131.14 221.55,131.08 221.41,131 221.41,130.94 221.27,130.86 221.27,130.8 221.13,130.72 221.13,130.66 
			220.99,130.58 220.99,130.52 220.85,130.44 220.85,130.38 220.71,130.3 220.71,130.24 220.57,130.16 220.57,130.1 220.43,130.02 
			220.43,129.96 220.29,129.88 220.29,129.82 220.15,129.74 220.15,129.68 220.01,129.6 220.01,129.54 219.87,129.46 219.87,129.4 
			219.73,129.32 219.73,129.26 219.59,129.18 219.59,129.12 219.45,129.04 219.45,128.98 219.31,128.9 219.31,128.84 219.17,128.76 
			219.17,128.7 219.03,128.62 219.03,128.56 218.89,128.48 218.89,128.42 218.75,128.34 218.75,128.28 218.61,128.2 218.61,128.14 
			218.47,128.06 218.47,128 218.33,127.92 218.33,127.86 218.19,127.78 218.19,127.72 218.05,127.64 218.05,127.58 217.91,127.5 
			217.91,127.44 217.77,127.36 217.77,127.3 217.63,127.22 217.63,127.16 217.49,127.08 217.49,127.02 217.35,126.94 217.35,126.88 
			217.21,126.8 217.21,126.74 217.07,126.66 217.07,126.6 216.93,126.52 216.93,126.46 216.79,126.38 216.79,126.32 216.65,126.24 
			216.65,126.18 216.51,126.1 216.51,126.04 216.37,125.96 216.37,125.9 216.23,125.82 216.23,125.76 216.09,125.68 216.09,125.62 
			215.95,125.54 215.95,125.48 215.81,125.4 215.81,125.34 215.67,125.26 215.67,125.2 215.53,125.12 215.53,125.06 215.39,124.98 
			215.39,124.92 215.25,124.84 215.25,124.78 215.11,124.7 215.11,124.64 214.97,124.56 214.97,124.5 214.83,124.42 214.83,124.36 
			214.69,124.28 214.69,124.22 214.55,124.14 214.55,124.08 214.41,124 214.41,123.94 214.27,123.86 214.27,123.8 214.13,123.72 
			214.13,123.66 213.99,123.58 213.99,123.52 213.85,123.44 213.85,123.38 213.71,123.3 213.71,123.24 213.57,123.16 213.57,123.1 
			213.43,123.02 213.43,122.96 213.29,122.88 213.29,122.82 213.15,122.74 213.15,122.68 213.01,122.6 213.01,122.54 212.87,122.46 
			212.87,122.4 212.73,122.32 212.73,122.26 212.59,122.18 212.59,122.12 212.45,122.04 212.45,121.98 212.31,121.9 212.31,121.84 
			212.17,121.76 212.17,121.7 212.03,121.62 212.03,121.56 211.89,121.48 211.89,121.42 211.75,121.34 211.75,121.28 211.61,121.2 
			211.61,121.14 211.47,121.06 211.47,121 211.33,120.92 211.33,120.86 211.19,120.78 211.19,120.72 211.05,120.64 211.05,120.58 
			210.91,120.5 210.91,120.44 210.77,120.36 210.77,120.3 210.63,120.22 210.63,120.16 210.49,120.08 210.49,120.02 210.35,119.94 
			210.35,119.88 210.21,119.8 210.21,119.74 210.07,119.66 210.07,119.6 209.93,119.52 209.93,119.46 209.78,119.38 209.78,119.32 
			209.64,119.24 209.64,119.18 209.5,119.1 209.5,119.04 209.36,118.96 209.36,118.9 209.22,118.82 209.22,118.76 209.08,118.68 
			209.08,118.62 208.94,118.54 208.94,118.48 208.8,118.4 208.8,118.34 208.66,118.26 208.66,118.2 208.52,118.12 208.52,118.06 
			208.38,117.98 208.38,117.92 208.24,117.84 208.24,117.78 208.1,117.7 208.1,117.64 207.96,117.56 207.96,117.5 207.82,117.42 
			207.82,117.36 207.68,117.28 207.68,117.22 207.54,117.14 207.54,117.08 207.4,117 207.4,116.94 207.26,116.86 207.26,116.8 
			207.12,116.72 207.12,116.66 206.98,116.58 206.98,116.52 206.84,116.44 206.84,116.38 206.7,116.3 206.7,116.24 206.56,116.16 
			206.56,116.1 206.42,116.02 206.42,115.96 206.28,115.88 206.28,115.82 206.14,115.74 206.14,115.68 206,115.6 206,115.54 
			205.86,115.46 205.86,115.4 205.72,115.32 205.72,115.26 205.58,115.18 205.58,115.12 205.44,115.04 205.44,114.98 205.3,114.9 
			205.3,114.84 205.16,114.76 205.16,114.7 205.02,114.62 205.02,114.56 204.88,114.48 204.88,114.42 204.74,114.34 204.74,114.28 
			204.6,114.2 204.6,114.14 204.46,114.06 204.46,114 204.32,113.92 204.32,113.86 204.18,113.78 204.18,113.72 204.04,113.64 
			204.04,113.58 203.9,113.5 203.9,113.44 203.76,113.36 203.76,113.3 203.62,113.22 203.62,113.16 203.48,113.08 203.48,113.02 
			203.34,112.94 203.34,112.88 203.2,112.8 203.2,112.74 203.06,112.66 203.06,112.6 202.92,112.52 202.92,112.46 202.78,112.38 
			202.78,112.32 202.64,112.24 202.64,112.18 202.5,112.1 202.5,112.04 202.36,111.96 202.36,111.9 202.22,111.82 202.22,111.76 
			202.08,111.68 202.08,111.62 201.94,111.54 201.94,111.48 201.8,111.4 201.8,111.34 201.66,111.26 201.66,111.2 201.52,111.12 
			201.52,111.06 201.38,110.98 201.38,110.92 201.24,110.84 201.24,110.78 201.1,110.7 201.1,110.64 200.96,110.55 200.96,110.5 
			200.82,110.41 200.82,110.36 200.68,110.27 200.68,110.22 200.54,110.13 200.54,110.08 200.4,109.99 200.4,109.94 200.26,109.85 
			200.26,109.8 200.12,109.71 200.12,109.66 199.98,109.57 199.98,109.52 199.84,109.43 199.84,109.38 199.7,109.29 199.7,109.24 
			199.56,109.15 199.56,109.1 199.42,109.01 199.42,108.96 199.28,108.87 199.28,108.82 199.14,108.73 199.14,108.67 199,108.59 
			199,108.53 198.86,108.45 198.86,108.39 198.72,108.31 198.72,108.25 198.58,108.17 198.58,108.11 198.44,108.03 198.44,107.97 
			198.3,107.89 198.3,107.83 198.16,107.75 198.16,107.69 198.02,107.61 198.02,107.55 197.88,107.47 197.88,107.41 197.74,107.33 
			197.74,107.27 197.6,107.19 197.6,107.13 197.46,107.05 197.46,106.99 197.32,106.91 197.32,106.85 197.18,106.77 197.18,106.71 
			197.04,106.63 197.04,106.57 196.9,106.49 196.9,106.43 196.76,106.35 196.76,106.29 196.62,106.21 196.62,106.15 196.48,106.07 
			196.48,106.01 196.34,105.93 196.34,105.87 196.2,105.79 196.2,105.73 196.06,105.65 196.06,105.59 195.92,105.51 195.92,105.45 
			195.78,105.37 195.78,105.31 195.64,105.23 195.64,105.17 195.5,105.09 195.5,105.03 195.36,104.95 195.36,104.89 195.22,104.81 
			195.22,104.75 195.08,104.67 195.08,104.61 194.94,104.53 194.94,104.47 194.8,104.39 194.8,104.33 194.66,104.25 194.66,104.19 
			194.52,104.11 194.52,104.05 194.38,103.97 194.38,103.91 194.24,103.83 194.24,103.77 194.1,103.69 194.1,103.63 193.96,103.55 
			193.96,103.49 193.82,103.41 193.82,103.35 193.68,103.27 193.68,103.21 193.54,103.13 193.54,103.07 193.4,102.99 193.4,102.93 
			193.26,102.85 193.26,102.79 193.12,102.71 193.12,102.65 192.98,102.57 192.98,102.51 192.84,102.43 192.84,102.37 192.7,102.29 
			192.7,102.23 192.56,102.15 192.56,102.09 192.42,102.01 192.42,101.95 192.28,101.87 192.28,101.81 192.14,101.73 192.14,101.67 
			192,101.59 192,101.53 191.86,101.45 191.86,101.39 191.72,101.31 191.72,101.25 191.58,101.17 191.58,101.11 191.44,101.03 
			191.44,100.97 191.3,100.89 191.3,100.83 191.16,100.75 191.16,100.69 191.02,100.61 191.02,100.55 190.88,100.47 190.88,100.41 
			190.74,100.33 190.74,100.27 190.6,100.19 190.6,100.13 190.46,100.05 190.46,99.99 190.32,99.91 190.32,99.85 190.18,99.77 
			190.18,99.71 190.04,99.63 190.04,99.57 189.9,99.49 189.9,99.43 189.76,99.35 189.76,99.29 189.62,99.21 189.62,99.15 
			189.48,99.07 189.48,99.01 189.34,98.93 189.34,98.87 189.2,98.79 189.2,98.73 189.06,98.65 189.06,98.59 188.92,98.51 
			188.92,98.45 188.78,98.37 188.78,98.31 188.64,98.23 188.64,98.17 188.5,98.09 188.5,98.03 188.36,97.95 188.36,97.89 
			188.22,97.81 188.22,97.75 188.08,97.67 188.08,97.61 187.94,97.53 187.94,97.47 187.8,97.39 187.8,97.33 187.66,97.25 
			187.66,97.19 187.52,97.11 187.52,97.05 187.38,96.97 187.38,96.91 187.24,96.83 187.24,96.77 187.1,96.69 187.1,96.63 
			186.96,96.55 186.96,96.49 186.82,96.41 186.82,96.35 186.68,96.27 186.68,96.21 186.54,96.13 186.54,96.07 186.4,95.99 
			186.4,95.93 186.26,95.85 186.26,95.79 186.11,95.71 186.11,95.65 185.97,95.57 185.97,95.51 185.83,95.43 185.83,95.37 
			185.69,95.29 185.69,95.23 185.55,95.15 185.55,95.09 185.41,95.01 185.41,94.95 185.27,94.87 185.27,94.81 185.13,94.73 
			185.13,94.67 184.99,94.59 184.99,94.53 184.85,94.45 184.85,94.39 184.71,94.31 184.71,94.25 184.57,94.17 184.57,94.11 
			184.43,94.03 184.43,93.97 184.29,93.89 184.29,93.83 184.15,93.75 184.15,93.69 184.01,93.61 184.01,93.55 183.87,93.47 
			183.87,93.41 183.73,93.33 183.73,93.27 183.59,93.19 183.59,93.13 183.45,93.05 183.45,92.99 183.31,92.91 183.31,92.85 
			183.17,92.77 183.17,92.71 183.03,92.63 183.03,92.57 182.89,92.49 182.89,92.43 182.75,92.35 182.75,92.29 182.61,92.21 
			182.61,92.15 182.47,92.07 182.47,92.01 182.33,91.93 182.33,91.87 182.19,91.79 182.19,91.73 182.05,91.65 182.05,91.59 
			181.91,91.51 181.91,91.45 181.77,91.37 181.77,91.31 181.63,91.23 181.63,91.17 181.49,91.09 181.49,91.03 181.35,90.95 
			181.35,90.89 181.21,90.81 181.21,90.75 181.07,90.67 181.07,90.61 180.93,90.53 180.93,90.47 180.79,90.39 180.79,90.33 
			180.65,90.25 180.65,90.19 180.51,90.11 180.51,90.05 180.37,89.97 180.37,89.91 180.23,89.83 180.23,89.77 180.09,89.69 
			180.09,89.63 179.95,89.55 179.95,89.49 179.81,89.41 179.81,89.35 179.67,89.27 179.67,89.21 179.53,89.13 179.53,89.07 
			179.39,88.99 179.39,88.93 179.25,88.85 179.25,88.79 179.11,88.71 179.11,88.65 178.97,88.57 178.97,88.51 178.83,88.43 
			178.83,88.37 178.69,88.29 178.69,88.23 178.55,88.15 178.55,88.09 178.41,88.01 178.41,87.95 178.27,87.87 178.27,87.81 
			178.13,87.73 178.13,87.67 177.99,87.59 177.99,87.53 177.85,87.45 177.85,87.39 177.71,87.31 177.71,87.25 177.57,87.17 
			177.57,87.11 177.43,87.03 177.43,86.97 177.29,86.88 177.29,86.83 177.15,86.74 177.15,86.69 177.01,86.6 177.01,86.55 
			176.87,86.46 176.87,86.41 176.73,86.32 176.73,86.27 176.59,86.18 176.59,86.13 176.45,86.04 176.45,85.99 176.31,85.9 
			176.31,85.85 176.17,85.76 176.17,85.71 176.03,85.62 176.03,85.57 175.89,85.48 175.89,85.43 175.75,85.34 175.75,85.29 
			175.61,85.2 175.61,85.15 175.47,85.06 175.47,85.01 175.33,84.92 175.33,84.86 175.19,84.78 175.19,84.72 175.05,84.64 
			175.05,84.58 174.91,84.5 174.91,84.44 174.77,84.36 174.77,84.3 174.63,84.22 174.63,84.16 174.49,84.08 174.49,84.02 
			174.35,83.94 174.35,83.88 174.21,83.8 174.21,83.74 174.07,83.66 174.07,83.6 173.93,83.52 173.93,83.46 173.79,83.38 
			173.79,83.32 173.65,83.24 173.65,83.18 173.51,83.1 173.51,83.04 173.37,82.96 173.37,82.9 173.23,82.82 173.23,82.76 
			173.09,82.68 173.09,82.62 172.95,82.54 172.95,82.48 172.81,82.4 172.81,82.34 172.67,82.26 172.67,82.2 172.53,82.12 
			172.53,82.06 172.39,81.98 172.39,81.92 172.25,81.84 172.25,81.78 172.11,81.7 172.11,81.64 171.97,81.56 171.97,81.5 
			171.83,81.42 171.83,81.36 171.69,81.28 171.69,81.22 171.55,81.14 171.55,81.08 171.41,81 171.41,80.94 171.27,80.86 
			171.27,80.8 171.13,80.72 171.13,80.66 170.99,80.58 170.99,80.52 170.85,80.44 170.85,80.38 170.71,80.3 170.71,80.24 
			170.57,80.16 170.57,80.1 170.43,80.02 170.43,79.96 170.29,79.88 170.29,79.82 170.15,79.74 170.15,79.68 170.01,79.6 
			170.01,79.54 169.87,79.46 169.87,79.4 169.73,79.32 169.73,79.26 169.59,79.18 169.59,79.12 169.45,79.04 169.45,78.98 
			169.31,78.9 169.31,78.84 169.17,78.76 169.17,78.7 169.03,78.62 169.03,78.56 168.89,78.48 168.89,78.42 168.75,78.34 
			168.75,78.28 168.61,78.2 168.61,78.14 168.47,78.06 168.47,78 168.33,77.92 168.33,77.86 168.19,77.78 168.19,77.72 
			168.05,77.64 168.05,77.58 167.91,77.5 167.91,77.44 167.77,77.36 167.77,77.3 167.63,77.22 167.63,77.16 167.49,77.08 
			167.49,77.02 167.35,76.94 167.35,76.88 167.21,76.8 167.21,76.74 167.07,76.66 167.07,76.6 166.93,76.52 166.93,76.46 
			166.79,76.38 166.79,76.32 166.65,76.24 166.65,76.18 166.51,76.1 166.51,76.04 166.37,75.96 166.37,75.9 166.23,75.82 
			166.23,75.76 166.09,75.68 166.09,75.62 165.95,75.54 165.95,75.48 165.81,75.4 165.81,75.34 165.67,75.26 165.67,75.2 
			165.53,75.12 165.53,75.06 165.39,74.98 165.39,74.92 165.25,74.84 165.25,74.78 165.11,74.7 165.11,74.64 132.96,56.08 
			101.58,94.2 101.57,94.18 101.55,94.19 101.43,94.04 101.41,94.05 101.29,93.9 101.27,93.91 101.15,93.76 101.13,93.77 
			101.01,93.62 100.99,93.63 100.87,93.48 100.85,93.49 100.73,93.34 100.71,93.35 100.59,93.2 100.57,93.21 100.45,93.06 
			100.43,93.07 100.31,92.92 100.29,92.93 100.17,92.78 100.15,92.79 100.03,92.64 100.01,92.65 99.89,92.5 99.87,92.51 
			99.75,92.36 99.73,92.37 99.61,92.22 99.59,92.23 99.47,92.08 99.45,92.09 99.33,91.94 99.31,91.95 99.19,91.8 99.17,91.81 
			99.05,91.66 99.03,91.67 98.91,91.52 98.89,91.53 98.77,91.38 98.75,91.39 98.63,91.24 98.61,91.25 98.49,91.1 98.47,91.11 
			98.35,90.96 98.33,90.97 98.21,90.82 98.19,90.83 98.07,90.68 98.05,90.69 97.93,90.54 97.91,90.55 97.79,90.4 97.77,90.41 
			97.65,90.26 97.63,90.27 97.51,90.12 97.49,90.13 97.37,89.98 97.35,89.99 97.23,89.84 97.21,89.85 97.09,89.7 97.07,89.71 
			96.95,89.56 96.93,89.57 96.81,89.42 96.79,89.43 96.67,89.28 96.65,89.29 96.53,89.14 96.51,89.15 96.39,89 96.37,89.01 
			96.25,88.86 96.23,88.87 96.11,88.72 96.09,88.73 95.97,88.58 95.95,88.59 95.83,88.44 95.81,88.45 95.69,88.3 95.67,88.31 
			95.55,88.16 95.53,88.17 95.41,88.02 95.39,88.03 95.27,87.88 95.25,87.89 95.13,87.74 95.11,87.75 94.99,87.6 94.97,87.61 
			94.85,87.46 94.83,87.47 94.71,87.32 94.69,87.33 94.57,87.18 94.55,87.19 94.43,87.04 94.41,87.05 94.29,86.9 94.27,86.91 
			94.15,86.76 94.13,86.77 94.01,86.62 93.99,86.63 93.87,86.48 93.85,86.49 93.73,86.34 93.71,86.35 93.59,86.2 93.57,86.21 
			93.45,86.06 93.43,86.07 93.31,85.92 93.29,85.93 93.17,85.78 93.15,85.79 93.03,85.64 93.01,85.65 92.89,85.5 92.87,85.51 
			92.75,85.36 92.73,85.37 92.61,85.22 92.59,85.23 92.47,85.08 92.45,85.09 92.33,84.94 92.31,84.95 92.19,84.8 92.17,84.81 
			92.05,84.66 92.03,84.67 91.91,84.52 91.89,84.53 91.77,84.38 91.75,84.39 91.63,84.24 91.61,84.25 91.49,84.1 91.47,84.11 
			91.35,83.96 91.33,83.97 91.21,83.82 91.19,83.82 91.07,83.68 91.05,83.68 90.93,83.54 90.91,83.54 90.79,83.39 90.77,83.4 
			90.65,83.25 90.63,83.26 90.51,83.11 90.49,83.12 90.37,82.97 90.35,82.98 90.23,82.83 90.21,82.84 90.09,82.69 90.07,82.7 
			89.95,82.55 89.93,82.56 89.8,82.41 89.79,82.42 89.66,82.27 89.65,82.28 89.52,82.13 89.51,82.14 89.38,81.99 89.37,82 
			89.24,81.85 89.23,81.86 89.1,81.71 89.09,81.72 88.96,81.57 88.95,81.58 88.82,81.43 88.81,81.44 88.68,81.29 88.67,81.3 
			88.54,81.15 88.53,81.16 88.4,81.01 88.39,81.02 88.26,80.87 88.25,80.88 88.12,80.73 88.11,80.74 87.98,80.59 87.97,80.6 
			87.84,80.45 87.83,80.46 87.7,80.31 87.69,80.32 87.56,80.17 87.55,80.18 87.42,80.03 87.41,80.04 87.28,79.89 87.27,79.9 
			87.14,79.75 87.13,79.76 87,79.61 86.99,79.62 86.86,79.47 86.85,79.48 86.72,79.33 86.71,79.34 86.58,79.19 86.57,79.2 
			86.44,79.05 86.43,79.06 86.3,78.91 86.29,78.92 86.16,78.77 86.15,78.78 86.02,78.63 86.01,78.64 85.88,78.49 85.87,78.5 
			85.74,78.35 85.73,78.36 85.6,78.21 85.59,78.22 85.46,78.07 85.45,78.08 85.32,77.93 85.31,77.94 85.18,77.79 85.17,77.8 
			85.04,77.65 85.03,77.66 84.9,77.51 84.89,77.52 84.76,77.37 84.75,77.38 84.62,77.23 84.61,77.24 84.48,77.09 84.47,77.1 
			84.34,76.95 84.33,76.96 84.2,76.81 84.19,76.82 84.06,76.67 84.05,76.68 83.92,76.53 83.91,76.54 83.78,76.39 83.77,76.4 
			83.64,76.25 83.63,76.26 83.5,76.11 83.49,76.12 83.36,75.97 83.35,75.98 83.22,75.83 83.21,75.84 83.08,75.69 83.06,75.7 
			82.94,75.55 82.92,75.56 82.8,75.41 82.78,75.42 82.66,75.27 82.64,75.28 82.52,75.13 82.5,75.14 82.38,74.99 82.36,75 
			82.24,74.85 82.22,74.86 82.1,74.71 82.08,74.72 81.96,74.57 81.94,74.58 81.82,74.43 81.8,74.44 81.68,74.29 81.66,74.3 
			81.54,74.15 81.52,74.16 81.4,74.01 81.38,74.02 81.26,73.87 81.24,73.88 81.12,73.73 81.1,73.74 80.98,73.59 80.96,73.6 
			80.84,73.45 80.82,73.46 80.7,73.31 80.68,73.32 80.56,73.17 80.54,73.18 80.42,73.03 80.4,73.04 80.28,72.89 80.26,72.9 
			80.14,72.75 80.12,72.76 80,72.61 79.98,72.62 79.86,72.47 79.84,72.48 79.72,72.33 79.7,72.34 79.58,72.19 79.56,72.2 
			79.44,72.05 79.42,72.06 79.3,71.91 79.28,71.92 79.16,71.77 79.14,71.78 79.02,71.63 79,71.64 78.88,71.49 78.86,71.5 
			78.74,71.35 78.72,71.36 78.6,71.21 78.58,71.22 78.46,71.07 78.44,71.08 78.32,70.93 78.3,70.94 78.18,70.79 78.16,70.8 
			78.04,70.65 78.02,70.66 77.9,70.51 77.88,70.52 77.76,70.37 77.74,70.38 77.62,70.23 77.6,70.24 77.48,70.09 77.46,70.1 
			77.34,69.95 77.32,69.96 77.2,69.81 77.18,69.82 77.06,69.67 77.04,69.68 76.92,69.53 76.9,69.54 76.78,69.39 76.76,69.4 
			76.64,69.25 76.62,69.26 76.5,69.11 76.48,69.12 76.36,68.97 76.34,68.98 76.22,68.83 76.2,68.84 76.08,68.69 76.06,68.7 
			75.94,68.55 75.92,68.56 75.8,68.41 75.78,68.42 75.66,68.27 75.64,68.28 75.52,68.13 75.5,68.14 75.38,67.99 75.36,68 
			75.24,67.85 75.22,67.86 75.1,67.71 75.08,67.72 74.96,67.57 74.94,67.58 74.82,67.43 74.8,67.44 74.68,67.29 74.66,67.3 
			74.54,67.15 74.52,67.16 74.4,67.01 74.38,67.02 74.26,66.87 74.24,66.88 74.12,66.73 74.1,66.74 73.98,66.59 73.96,66.6 
			73.84,66.45 73.82,66.46 73.7,66.31 73.68,66.32 73.56,66.17 73.54,66.18 73.42,66.03 73.4,66.04 73.28,65.89 73.26,65.9 
			73.14,65.75 73.12,65.76 73,65.61 72.98,65.62 72.86,65.47 72.84,65.48 72.72,65.33 72.7,65.34 72.58,65.19 72.56,65.2 
			72.44,65.05 72.42,65.06 72.3,64.91 72.28,64.92 72.16,64.77 72.14,64.78 72.02,64.63 72,64.64 71.88,64.49 71.86,64.5 
			71.74,64.35 71.72,64.36 71.6,64.21 71.58,64.22 71.46,64.07 71.44,64.08 71.32,63.93 71.3,63.94 71.18,63.79 71.16,63.8 
			71.04,63.65 71.02,63.66 70.9,63.51 70.88,63.52 70.76,63.37 70.74,63.38 70.62,63.23 70.6,63.24 70.48,63.09 70.46,63.1 
			70.34,62.95 70.32,62.96 70.2,62.81 70.18,62.82 70.06,62.67 70.04,62.68 69.92,62.53 69.9,62.54 69.78,62.39 69.76,62.4 
			69.64,62.25 69.62,62.26 69.5,62.11 69.48,62.12 69.36,61.97 69.34,61.98 69.22,61.83 69.2,61.84 69.08,61.69 69.06,61.7 
			68.94,61.55 68.92,61.56 68.8,61.41 68.78,61.42 68.66,61.27 68.64,61.28 68.52,61.13 68.5,61.14 68.38,60.99 68.36,61 
			68.24,60.85 68.22,60.86 68.1,60.71 68.08,60.72 67.96,60.57 67.94,60.58 67.82,60.43 67.8,60.44 67.68,60.29 67.66,60.3 
			67.54,60.15 67.52,60.15 67.4,60.01 67.38,60.01 67.26,59.86 67.24,59.87 67.12,59.72 67.1,59.73 66.98,59.58 66.96,59.59 
			66.84,59.44 66.82,59.45 66.7,59.3 66.68,59.31 66.56,59.16 66.54,59.17 66.42,59.02 66.4,59.03 66.28,58.88 66.26,58.89 
			66.14,58.74 66.12,58.75 65.99,58.6 65.98,58.61 65.85,58.46 65.84,58.47 65.71,58.32 65.7,58.33 65.57,58.18 65.56,58.19 
			65.43,58.04 65.42,58.05 65.29,57.9 65.28,57.91 65.15,57.76 65.14,57.77 65.01,57.62 65,57.63 64.87,57.48 64.86,57.49 
			64.73,57.34 64.72,57.35 64.59,57.2 64.58,57.21 64.45,57.06 64.44,57.07 64.31,56.92 64.3,56.93 64.17,56.78 64.16,56.79 
			64.03,56.64 64.02,56.65 63.89,56.5 63.88,56.51 63.75,56.36 63.74,56.37 63.61,56.22 63.6,56.23 63.47,56.08 31.33,74.64 
			31.33,151.88 31.47,151.96 31.47,152.02 31.61,152.1 31.61,152.16 31.75,152.24 31.75,152.3 31.89,152.38 31.89,152.44 
			32.03,152.52 32.03,152.58 32.17,152.66 32.17,152.72 32.31,152.8 32.31,152.86 32.45,152.94 32.45,153 32.59,153.08 
			32.59,153.14 32.73,153.22 32.73,153.28 32.87,153.36 32.87,153.42 33.01,153.5 33.01,153.56 33.15,153.64 33.15,153.7 
			33.29,153.78 33.29,153.84 33.43,153.92 33.43,153.98 33.57,154.06 33.57,154.12 33.71,154.2 33.71,154.26 33.85,154.34 
			33.85,154.4 33.99,154.48 33.99,154.54 34.13,154.62 34.13,154.68 34.27,154.76 34.27,154.82 34.41,154.9 34.41,154.96 
			34.55,155.04 34.55,155.1 34.69,155.18 34.69,155.24 34.83,155.32 34.83,155.38 34.97,155.46 34.97,155.52 35.11,155.6 
			35.11,155.66 35.25,155.74 35.25,155.8 35.39,155.88 35.39,155.94 35.53,156.02 35.53,156.08 35.67,156.16 35.67,156.22 
			35.81,156.3 35.81,156.36 35.95,156.44 35.95,156.5 36.09,156.58 36.09,156.64 36.23,156.72 36.23,156.78 36.37,156.86 
			36.37,156.92 36.51,157 36.51,157.06 36.65,157.14 36.65,157.2 36.79,157.28 36.79,157.34 36.93,157.42 36.93,157.48 
			37.07,157.56 37.07,157.62 37.21,157.7 37.21,157.76 37.35,157.84 37.35,157.9 37.49,157.98 37.49,158.04 37.63,158.12 
			37.63,158.18 37.77,158.26 37.77,158.32 37.91,158.4 37.91,158.46 38.05,158.54 38.05,158.6 38.19,158.68 38.19,158.74 
			38.33,158.82 38.33,158.88 38.47,158.96 38.47,159.02 38.61,159.1 38.61,159.16 38.76,159.24 38.76,159.3 38.9,159.38 
			38.9,159.44 39.04,159.52 39.04,159.58 39.18,159.66 39.18,159.72 39.32,159.8 39.32,159.86 39.46,159.94 39.46,160 39.6,160.08 
			39.6,160.14 39.74,160.22 39.74,160.28 39.88,160.36 39.88,160.42 40.02,160.5 40.02,160.56 40.16,160.64 40.16,160.7 
			40.3,160.78 40.3,160.84 40.44,160.92 40.44,160.98 40.58,161.06 40.58,161.12 40.72,161.2 40.72,161.26 40.86,161.34 
			40.86,161.4 41,161.48 41,161.54 41.14,161.62 41.14,161.68 41.28,161.76 41.28,161.82 41.42,161.9 41.42,161.96 41.56,162.04 
			41.56,162.1 41.7,162.18 41.7,162.24 41.84,162.32 41.84,162.38 41.98,162.46 41.98,162.52 42.12,162.6 42.12,162.66 
			42.26,162.74 42.26,162.8 42.4,162.88 42.4,162.94 42.54,163.02 42.54,163.08 42.68,163.16 42.68,163.22 42.82,163.3 
			42.82,163.36 42.96,163.44 42.96,163.5 43.1,163.58 43.1,163.64 43.24,163.72 43.24,163.78 43.38,163.86 43.38,163.92 43.52,164 
			43.52,164.06 43.66,164.14 43.66,164.2 43.8,164.28 43.8,164.34 43.94,164.42 43.94,164.48 44.08,164.56 44.08,164.62 
			44.22,164.7 44.22,164.76 44.36,164.84 44.36,164.9 44.5,164.98 44.5,165.04 44.64,165.12 44.64,165.18 44.78,165.26 
			44.78,165.32 44.92,165.4 44.92,165.46 45.06,165.54 45.06,165.6 45.2,165.68 45.2,165.74 45.34,165.82 45.34,165.88 
			45.48,165.96 45.48,166.02 45.62,166.1 45.62,166.16 45.76,166.24 45.76,166.3 45.9,166.38 45.9,166.44 46.04,166.52 
			46.04,166.58 46.18,166.66 46.18,166.72 46.32,166.8 46.32,166.86 46.46,166.94 46.46,167 46.6,167.08 46.6,167.14 46.74,167.22 
			46.74,167.28 46.88,167.36 46.88,167.42 47.02,167.5 47.02,167.56 47.16,167.64 47.16,167.7 47.3,167.78 47.3,167.84 
			47.44,167.92 47.44,167.98 47.58,168.06 47.58,168.12 47.72,168.2 47.72,168.26 47.86,168.34 47.86,168.4 48,168.48 48,168.54 
			48.14,168.62 48.14,168.68 48.28,168.76 48.28,168.82 48.42,168.9 48.42,168.96 48.56,169.04 48.56,169.1 48.7,169.18 
			48.7,169.24 48.84,169.32 48.84,169.38 48.98,169.46 48.98,169.52 49.12,169.6 49.12,169.66 49.26,169.74 49.26,169.8 
			49.4,169.88 49.4,169.94 49.54,170.02 49.54,170.08 49.68,170.16 49.68,170.22 49.82,170.3 49.82,170.36 49.96,170.44 
			49.96,170.5 50.1,170.58 50.1,170.64 50.24,170.72 50.24,170.78 50.38,170.86 50.38,170.92 50.52,171 50.52,171.06 50.66,171.14 
			50.66,171.2 50.8,171.28 50.8,171.34 50.94,171.42 50.94,171.48 51.08,171.56 51.08,171.62 51.22,171.7 51.22,171.76 
			51.36,171.84 51.36,171.9 51.5,171.98 51.5,172.04 51.64,172.12 51.64,172.18 51.78,172.26 51.78,172.32 51.92,172.4 
			51.92,172.46 52.06,172.54 52.06,172.6 52.2,172.69 52.2,172.74 52.34,172.82 52.34,172.88 52.48,172.97 52.48,173.02 
			52.62,173.11 52.62,173.16 52.76,173.25 52.76,173.3 52.9,173.39 52.9,173.44 53.04,173.53 53.04,173.58 53.18,173.67 
			53.18,173.72 53.32,173.81 53.32,173.86 53.46,173.95 53.46,174 53.6,174.09 53.6,174.14 53.74,174.23 53.74,174.28 53.88,174.37 
			53.88,174.42 54.02,174.51 54.02,174.56 54.16,174.65 54.16,174.7 54.3,174.79 54.3,174.85 54.44,174.93 54.44,174.99 
			54.58,175.07 54.58,175.13 54.72,175.21 54.72,175.27 54.86,175.35 54.86,175.41 55,175.49 55,175.55 55.14,175.63 55.14,175.69 
			55.28,175.77 55.28,175.83 55.42,175.91 55.42,175.97 55.56,176.05 55.56,176.11 55.7,176.19 55.7,176.25 55.84,176.33 
			55.84,176.39 55.98,176.47 55.98,176.53 56.12,176.61 56.12,176.67 56.26,176.75 56.26,176.81 56.4,176.89 56.4,176.95 
			56.54,177.03 56.54,177.09 56.68,177.17 56.68,177.23 56.82,177.31 56.82,177.37 56.96,177.45 56.96,177.51 57.1,177.59 
			57.1,177.65 57.24,177.73 57.24,177.79 57.38,177.87 57.38,177.93 57.52,178.01 57.52,178.07 57.66,178.15 57.66,178.21 
			57.8,178.29 57.8,178.35 57.94,178.43 57.94,178.49 58.08,178.57 58.08,178.63 58.22,178.71 58.22,178.77 58.36,178.85 
			58.36,178.91 58.5,178.99 58.5,179.05 58.64,179.13 58.64,179.19 58.78,179.27 58.78,179.33 58.92,179.41 58.92,179.47 
			59.06,179.55 59.06,179.61 59.2,179.69 59.2,179.75 59.34,179.83 59.34,179.89 59.48,179.97 59.48,180.03 59.62,180.11 
			59.62,180.17 59.76,180.25 59.76,180.31 59.9,180.39 59.9,180.45 60.04,180.53 60.04,180.59 60.18,180.67 60.18,180.73 
			60.32,180.81 60.32,180.87 60.46,180.95 60.46,181.01 60.6,181.09 60.6,181.15 60.74,181.23 60.74,181.29 60.88,181.37 
			60.88,181.43 61.02,181.51 61.02,181.57 61.16,181.65 61.16,181.71 61.3,181.79 61.3,181.85 61.44,181.93 61.44,181.99 
			61.58,182.07 61.58,182.13 61.72,182.21 61.72,182.27 61.86,182.35 61.86,182.41 62,182.49 62,182.55 62.14,182.63 62.14,182.69 
			62.28,182.77 62.28,182.83 62.42,182.91 62.42,182.97 62.57,183.05 62.57,183.11 62.71,183.19 62.71,183.25 62.85,183.33 
			62.85,183.39 62.99,183.47 62.99,183.53 63.13,183.61 63.13,183.67 63.27,183.75 63.27,183.81 63.41,183.89 63.41,183.95 
			63.55,184.03 63.55,184.09 63.69,184.17 63.69,184.23 63.83,184.31 63.83,184.37 63.97,184.45 63.97,184.51 64.11,184.59 
			64.11,184.65 64.25,184.73 64.25,184.79 64.39,184.87 64.39,184.93 64.53,185.01 64.53,185.07 64.67,185.15 64.67,185.21 
			64.81,185.29 64.81,185.35 64.95,185.43 64.95,185.49 65.09,185.57 65.09,185.63 65.23,185.71 65.23,185.77 65.37,185.85 
			65.37,185.91 65.51,185.99 65.51,186.05 65.65,186.13 65.65,186.19 65.79,186.27 65.79,186.33 65.93,186.41 65.93,186.47 
			66.07,186.55 66.07,186.61 66.21,186.69 66.21,186.75 66.35,186.83 66.35,186.89 66.49,186.97 66.49,187.03 66.63,187.11 
			66.63,187.17 66.77,187.25 66.77,187.31 66.91,187.39 66.91,187.45 67.05,187.53 67.05,187.59 67.19,187.67 67.19,187.73 
			67.33,187.81 67.33,187.87 67.47,187.95 67.47,188.01 67.61,188.09 67.61,188.15 67.75,188.23 67.75,188.29 67.89,188.37 
			67.89,188.43 68.03,188.51 68.03,188.57 68.17,188.65 68.17,188.71 68.31,188.79 68.31,188.85 68.45,188.93 68.45,188.99 
			68.59,189.07 68.59,189.13 68.73,189.21 68.73,189.27 68.87,189.35 68.87,189.41 69.01,189.49 69.01,189.55 69.15,189.63 
			69.15,189.69 69.29,189.77 69.29,189.83 69.43,189.91 69.43,189.97 69.57,190.05 69.57,190.11 69.71,190.19 69.71,190.25 
			69.85,190.33 69.85,190.39 69.99,190.47 69.99,190.53 70.13,190.61 70.13,190.67 70.27,190.75 70.27,190.81 70.41,190.89 
			70.41,190.95 70.55,191.03 70.55,191.09 70.69,191.17 70.69,191.23 70.83,191.31 70.83,191.37 70.97,191.45 70.97,191.51 
			71.11,191.59 71.11,191.65 71.25,191.73 71.25,191.79 71.39,191.87 71.39,191.93 71.53,192.01 71.53,192.07 71.67,192.15 
			71.67,192.21 71.81,192.29 71.81,192.35 71.95,192.43 71.95,192.49 72.09,192.57 72.09,192.63 72.23,192.71 72.23,192.77 
			72.37,192.85 72.37,192.91 72.51,192.99 72.51,193.05 72.65,193.13 72.65,193.19 72.79,193.27 72.79,193.33 72.93,193.41 
			72.93,193.47 73.07,193.55 73.07,193.61 73.21,193.69 73.21,193.75 73.35,193.83 73.35,193.89 73.49,193.97 73.49,194.03 
			73.63,194.11 73.63,194.17 73.77,194.25 73.77,194.31 73.91,194.39 73.91,194.45 74.05,194.53 74.05,194.59 74.19,194.67 
			74.19,194.73 74.33,194.81 74.33,194.87 74.47,194.95 74.47,195.01 74.61,195.09 74.61,195.15 74.75,195.23 74.75,195.29 
			74.89,195.37 74.89,195.43 75.03,195.51 75.03,195.57 75.17,195.65 75.17,195.71 75.31,195.79 75.31,195.85 75.45,195.93 
			75.45,195.99 75.59,196.07 75.59,196.13 75.73,196.21 75.73,196.27 75.87,196.35 75.87,196.41 76.01,196.5 76.01,196.55 
			76.15,196.64 76.15,196.69 76.29,196.78 76.29,196.83 76.43,196.92 76.43,196.97 76.57,197.06 76.57,197.11 76.71,197.2 
			76.71,197.25 76.85,197.34 76.85,197.39 76.99,197.48 76.99,197.53 77.13,197.62 77.13,197.67 77.27,197.76 77.27,197.81 
			77.41,197.9 77.41,197.95 77.55,198.04 77.55,198.09 77.69,198.18 77.69,198.23 77.83,198.32 77.83,198.38 77.97,198.46 
			77.97,198.52 78.11,198.6 78.11,198.66 78.25,198.74 78.25,198.8 78.39,198.88 78.39,198.94 78.53,199.02 78.53,199.08 
			78.67,199.16 78.67,199.22 78.81,199.3 78.81,199.36 78.95,199.44 78.95,199.5 79.09,199.58 79.09,199.64 79.23,199.72 
			79.23,199.78 79.37,199.86 79.37,199.92 79.51,200 79.51,200.06 79.65,200.14 79.65,200.2 79.79,200.28 79.79,200.34 
			79.93,200.42 79.93,200.48 80.07,200.56 80.07,200.62 80.21,200.7 80.21,200.76 80.35,200.84 80.35,200.9 80.49,200.98 
			80.49,201.04 80.63,201.12 80.63,201.18 80.77,201.26 80.77,201.32 80.91,201.4 80.91,201.46 81.05,201.54 81.05,201.6 
			81.19,201.68 81.19,201.74 81.33,201.82 81.33,201.88 81.47,201.96 81.47,202.02 81.61,202.1 81.61,202.16 81.75,202.24 
			81.75,202.3 81.89,202.38 81.89,202.44 82.03,202.52 82.03,202.58 82.17,202.66 82.17,202.72 82.31,202.8 82.31,202.86 
			82.45,202.94 82.45,203 82.59,203.08 82.59,203.14 82.73,203.22 82.73,203.28 82.87,203.36 82.87,203.42 83.01,203.5 
			83.01,203.56 83.15,203.64 83.15,203.7 83.29,203.78 83.29,203.84 83.43,203.92 83.43,203.98 83.57,204.06 83.57,204.12 
			83.71,204.2 83.71,204.26 83.85,204.34 83.85,204.4 83.99,204.48 83.99,204.54 84.13,204.62 84.13,204.68 84.27,204.76 
			84.27,204.82 84.41,204.9 84.41,204.96 84.55,205.04 84.55,205.1 84.69,205.18 84.69,205.24 84.83,205.32 84.83,205.38 
			84.97,205.46 84.97,205.52 85.11,205.6 85.11,205.66 85.25,205.74 85.25,205.8 85.39,205.88 85.39,205.94 85.53,206.02 
			85.53,206.08 85.67,206.16 85.67,206.22 85.81,206.3 85.81,206.36 85.95,206.44 85.95,206.5 86.09,206.58 86.09,206.64 
			86.23,206.72 86.23,206.78 86.38,206.86 86.38,206.92 86.52,207 86.52,207.06 86.66,207.14 86.66,207.2 86.8,207.28 86.8,207.34 
			86.94,207.42 86.94,207.48 87.08,207.56 87.08,207.62 87.22,207.7 87.22,207.76 87.36,207.84 87.36,207.9 87.5,207.98 
			87.5,208.04 87.64,208.12 87.64,208.18 87.78,208.26 87.78,208.32 87.92,208.4 87.92,208.46 88.06,208.54 88.06,208.6 
			88.2,208.68 88.2,208.74 88.34,208.82 88.34,208.88 88.48,208.96 88.48,209.02 88.62,209.1 88.62,209.16 88.76,209.24 
			88.76,209.3 88.9,209.38 88.9,209.44 89.04,209.52 89.04,209.58 89.18,209.66 89.18,209.72 89.32,209.8 89.32,209.86 
			89.46,209.94 89.46,210 89.6,210.08 89.6,210.14 89.74,210.22 89.74,210.28 89.88,210.36 89.88,210.42 90.02,210.5 90.02,210.56 
			90.16,210.64 90.16,210.7 90.3,210.78 90.3,210.84 90.44,210.92 90.44,210.98 90.58,211.06 90.58,211.12 90.72,211.2 
			90.72,211.26 90.86,211.34 90.86,211.4 91,211.48 91,211.54 91.14,211.62 91.14,211.68 91.28,211.76 91.28,211.82 91.42,211.9 
			91.42,211.96 91.56,212.04 91.56,212.1 91.7,212.18 91.7,212.24 91.84,212.32 91.84,212.38 91.98,212.46 91.98,212.52 
			92.12,212.6 92.12,212.66 92.26,212.74 92.26,212.8 92.4,212.88 92.4,212.94 92.54,213.02 92.54,213.08 92.68,213.16 
			92.68,213.22 92.82,213.3 92.82,213.36 92.96,213.44 92.96,213.5 93.1,213.58 93.1,213.64 93.24,213.72 93.24,213.78 
			93.38,213.86 93.38,213.92 93.52,214 93.52,214.06 93.66,214.14 93.66,214.2 93.8,214.28 93.8,214.34 93.94,214.42 93.94,214.48 
			94.08,214.56 94.08,214.62 94.22,214.7 94.22,214.76 94.36,214.84 94.36,214.9 94.5,214.98 94.5,215.04 94.64,215.12 
			94.64,215.18 94.78,215.26 94.78,215.32 94.92,215.4 94.92,215.46 95.06,215.54 95.06,215.6 95.2,215.68 95.2,215.74 
			95.34,215.82 95.34,215.88 95.48,215.96 95.48,216.02 95.62,216.1 95.62,216.16 95.76,216.24 95.76,216.3 95.9,216.38 
			95.9,216.44 96.04,216.52 96.04,216.58 96.18,216.66 96.18,216.72 96.32,216.8 96.32,216.86 96.46,216.94 96.46,217 96.6,217.08 
			96.6,217.14 96.74,217.22 96.74,217.28 96.88,217.36 96.88,217.42 97.02,217.5 97.02,217.56 97.16,217.64 97.16,217.7 
			97.3,217.78 97.3,217.84 97.44,217.92 97.44,217.98 97.58,218.06 97.58,218.12 97.72,218.2 97.72,218.26 97.86,218.34 
			97.86,218.4 98,218.48 98,218.54 98.14,218.62 98.14,218.68 98.28,218.76 98.28,218.82 98.42,218.9 98.42,218.96 98.56,219.04 
			98.56,219.1 98.7,219.18 98.7,219.24 98.84,219.32 98.84,219.38 98.98,219.46 98.98,219.52 99.12,219.6 99.12,219.66 
			99.26,219.74 99.26,219.8 99.4,219.88 99.4,219.94 99.54,220.02 99.54,220.08 99.68,220.17 99.68,220.22 99.82,220.31 
			99.82,220.36 99.96,220.45 99.96,220.5 100.1,220.59 100.1,220.64 100.24,220.73 100.24,220.78 100.38,220.87 100.38,220.92 
			100.52,221.01 100.52,221.06 100.66,221.15 100.66,221.2 100.8,221.29 100.8,221.34 100.94,221.43 100.94,221.48 101.08,221.57 
			101.08,221.62 101.22,221.71 101.22,221.76 101.36,221.85 101.36,221.9 101.5,221.99 101.5,222.04 101.64,222.13 101.64,222.19 
			101.78,222.27 101.78,222.33 101.92,222.41 101.92,222.47 102.06,222.55 102.06,222.61 102.2,222.69 102.2,222.75 102.34,222.83 
			102.34,222.89 102.48,222.97 102.48,223.03 102.62,223.11 102.62,223.17 102.76,223.25 102.76,223.31 102.9,223.39 102.9,223.45 
			103.04,223.53 103.04,223.59 103.18,223.67 103.18,223.73 103.32,223.81 103.32,223.87 103.46,223.95 103.46,224.01 103.6,224.09 
			103.6,224.15 103.74,224.23 103.74,224.29 103.88,224.37 103.88,224.43 104.02,224.51 104.02,224.57 104.16,224.65 104.16,224.71 
			104.3,224.79 104.3,224.85 104.44,224.93 104.44,224.99 104.58,225.07 104.58,225.13 104.72,225.21 104.72,225.27 104.86,225.35 
			104.86,225.41 105,225.49 105,225.55 105.14,225.63 105.14,225.69 105.28,225.77 105.28,225.83 105.42,225.91 105.42,225.97 
			105.56,226.05 105.56,226.11 105.7,226.19 105.7,226.25 105.84,226.33 105.84,226.39 105.98,226.47 105.98,226.53 106.12,226.61 
			106.12,226.67 106.26,226.75 106.26,226.81 106.4,226.89 106.4,226.95 106.54,227.03 106.54,227.09 106.68,227.17 106.68,227.23 
			106.82,227.31 106.82,227.37 106.96,227.45 106.96,227.51 107.1,227.59 107.1,227.65 107.24,227.73 107.24,227.79 107.38,227.87 
			107.38,227.93 107.52,228.01 107.52,228.07 107.66,228.15 107.66,228.21 107.8,228.29 107.8,228.35 107.94,228.43 107.94,228.49 
			108.08,228.57 108.08,228.63 108.22,228.71 108.22,228.77 108.36,228.85 108.36,228.91 108.5,228.99 108.5,229.05 108.64,229.13 
			108.64,229.19 108.78,229.27 108.78,229.33 108.92,229.41 108.92,229.47 109.06,229.55 109.06,229.61 109.2,229.69 109.2,229.75 
			109.34,229.83 109.34,229.89 109.48,229.97 109.48,230.03 109.62,230.11 109.62,230.17 109.76,230.25 109.76,230.31 
			109.91,230.39 109.91,230.45 110.05,230.53 110.05,230.59 110.19,230.67 110.19,230.73 110.33,230.81 110.33,230.87 
			110.47,230.95 110.47,231.01 110.61,231.09 110.61,231.15 110.75,231.23 110.75,231.29 110.89,231.37 110.89,231.43 
			111.03,231.51 111.03,231.57 111.17,231.65 111.17,231.71 111.31,231.79 111.31,231.85 111.45,231.93 111.45,231.99 
			111.59,232.07 111.59,232.13 111.73,232.21 111.73,232.27 111.87,232.35 111.87,232.41 112.01,232.49 112.01,232.55 
			112.15,232.63 112.15,232.69 112.29,232.77 112.29,232.83 112.43,232.91 112.43,232.97 112.57,233.05 112.57,233.11 
			112.71,233.19 112.71,233.25 112.85,233.33 112.85,233.39 112.99,233.47 112.99,233.53 113.13,233.61 113.13,233.67 
			113.27,233.75 113.27,233.81 113.41,233.89 113.41,233.95 113.55,234.03 113.55,234.09 113.69,234.17 113.69,234.23 
			113.83,234.31 113.83,234.37 113.97,234.45 113.97,234.51 114.11,234.59 114.11,234.65 114.25,234.73 114.25,234.79 
			114.39,234.87 114.39,234.93 114.53,235.01 114.53,235.07 114.67,235.15 114.67,235.21 114.81,235.29 114.81,235.35 
			114.95,235.43 114.95,235.49 115.09,235.57 115.09,235.63 115.23,235.71 115.23,235.77 115.37,235.85 115.37,235.91 
			115.51,235.99 115.51,236.05 115.65,236.13 115.65,236.19 115.79,236.27 115.79,236.33 115.93,236.41 115.93,236.47 
			116.07,236.55 116.07,236.61 116.21,236.69 116.21,236.75 116.35,236.83 116.35,236.89 116.49,236.97 116.49,237.03 
			116.63,237.11 116.63,237.17 116.77,237.25 116.77,237.31 116.91,237.39 116.91,237.45 117.05,237.53 117.05,237.59 
			117.19,237.67 117.19,237.73 117.33,237.81 117.33,237.87 117.47,237.95 117.47,238.01 117.61,238.09 117.61,238.15 
			117.75,238.23 117.75,238.29 117.89,238.37 117.89,238.43 118.03,238.51 118.03,238.57 118.17,238.65 118.17,238.71 
			118.31,238.79 118.31,238.85 118.45,238.93 118.45,238.99 118.59,239.07 118.59,239.13 118.73,239.21 118.73,239.27 
			118.87,239.35 118.87,239.41 119.01,239.49 119.01,239.55 119.15,239.63 119.15,239.69 119.29,239.77 119.29,239.83 
			119.43,239.91 119.43,239.97 119.57,240.05 119.57,240.11 119.71,240.19 119.71,240.25 119.85,240.33 119.85,240.39 
			119.99,240.47 119.99,240.53 120.13,240.61 120.13,240.67 120.27,240.75 120.27,240.81 120.41,240.89 120.41,240.95 
			120.55,241.03 120.55,241.09 120.69,241.17 120.69,241.23 120.83,241.31 120.83,241.37 120.97,241.45 120.97,241.51 
			121.11,241.59 121.11,241.65 121.25,241.73 121.25,241.79 121.39,241.87 121.39,241.93 121.53,242.01 121.53,242.07 
			121.67,242.15 121.67,242.21 121.81,242.29 121.81,242.35 121.95,242.43 121.95,242.49 122.09,242.57 122.09,242.63 
			122.23,242.71 122.23,242.77 122.37,242.85 122.37,242.91 122.51,242.99 122.51,243.05 122.65,243.13 122.65,243.19 
			122.79,243.27 122.79,243.33 122.93,243.41 122.93,243.47 123.07,243.55 123.07,243.61 123.21,243.69 123.21,243.75 
			123.35,243.84 123.35,243.89 123.49,243.97 123.49,244.03 123.63,244.12 123.63,244.17 123.77,244.26 123.77,244.31 123.91,244.4 
			123.91,244.45 124.05,244.54 124.05,244.59 124.19,244.68 124.19,244.73 124.33,244.82 124.33,244.87 124.47,244.96 
			124.47,245.01 124.61,245.1 124.61,245.15 124.75,245.24 124.75,245.29 124.89,245.38 124.89,245.43 125.03,245.52 125.03,245.57 
			125.17,245.66 125.17,245.71 125.31,245.8 125.31,245.85 125.45,245.94 125.45,246 125.59,246.08 125.59,246.14 125.73,246.22 
			125.73,246.28 125.87,246.36 125.87,246.42 126.01,246.5 126.01,246.56 126.15,246.64 126.15,246.7 126.29,246.78 126.29,246.84 
			126.43,246.92 126.43,246.98 126.57,247.06 126.57,247.12 126.71,247.2 126.71,247.26 126.85,247.34 126.85,247.4 126.99,247.48 
			126.99,247.54 127.13,247.62 127.13,247.68 127.27,247.76 127.27,247.82 127.41,247.9 127.41,247.96 127.55,248.04 127.55,248.1 
			127.69,248.18 127.69,248.24 127.83,248.32 127.83,248.38 127.97,248.46 127.97,248.52 128.11,248.6 128.11,248.66 128.25,248.74 
			128.25,248.8 128.39,248.88 128.39,248.94 128.53,249.02 128.53,249.08 128.67,249.16 128.67,249.22 128.81,249.3 128.81,249.36 
			128.95,249.44 128.95,249.5 129.09,249.58 129.09,249.64 129.23,249.72 129.23,249.78 129.37,249.86 129.37,249.92 129.51,250 
			129.51,250.06 129.65,250.14 129.65,250.2 129.79,250.28 129.79,250.34 129.93,250.42 129.93,250.48 130.07,250.56 130.07,250.62 
			130.21,250.7 130.21,250.76 130.35,250.84 130.35,250.9 130.49,250.98 130.49,251.04 130.63,251.12 130.63,251.18 130.77,251.26 
			130.77,251.32 130.91,251.4 130.91,251.46 131.05,251.54 131.05,251.6 131.19,251.68 131.19,251.74 131.33,251.82 131.33,251.88 
			131.47,251.96 131.47,252.02 131.61,252.1 131.61,252.16 131.75,252.24 131.75,252.3 131.89,252.38 131.89,252.44 132.03,252.52 
			132.03,252.58 132.17,252.66 132.17,252.72 132.31,252.8 132.31,252.86 132.45,252.94 132.45,253 132.59,253.08 132.59,253.14 
			132.73,253.22 132.73,253.28 132.87,253.36 132.87,253.42 133.01,253.5 133.01,253.56 133.15,253.64 133.15,253.7 133.29,253.78 
			133.29,253.84 133.43,253.92 133.43,253.98 133.58,254.06 133.58,254.12 133.72,254.2 133.72,254.26 133.86,254.34 133.86,254.4 
			134,254.48 134,254.54 134.14,254.62 134.14,254.68 134.28,254.76 134.28,254.82 134.42,254.9 134.42,254.96 134.56,255.04 
			134.56,255.1 134.7,255.18 134.7,255.24 134.84,255.32 134.84,255.38 134.98,255.46 134.98,255.52 135.12,255.6 135.12,255.66 
			135.26,255.74 135.26,255.8 135.4,255.88 135.4,255.94 135.54,256.02 135.54,256.08 135.68,256.16 135.68,256.22 135.82,256.3 
			135.82,256.36 135.96,256.44 135.96,256.5 136.1,256.58 136.1,256.64 136.24,256.72 136.24,256.78 136.38,256.86 136.38,256.92 
			136.52,257 136.52,257.06 136.66,257.14 136.66,257.2 136.8,257.28 136.8,257.34 136.94,257.42 136.94,257.48 137.08,257.56 
			137.08,257.62 137.22,257.7 137.22,257.76 137.36,257.84 137.36,257.9 137.5,257.98 137.5,258.04 137.64,258.12 137.64,258.18 
			137.78,258.26 137.78,258.32 137.92,258.4 137.92,258.46 138.06,258.54 138.06,258.6 138.2,258.68 138.2,258.74 138.34,258.82 
			138.34,258.88 138.48,258.96 138.48,259.02 138.62,259.1 138.62,259.16 138.76,259.24 138.76,259.3 138.9,259.38 138.9,259.44 
			139.04,259.52 139.04,259.58 139.18,259.66 139.18,259.72 139.32,259.8 139.32,259.86 139.46,259.94 139.46,260 139.6,260.08 
			139.6,260.14 139.74,260.22 139.74,260.28 139.88,260.36 139.88,260.42 140.02,260.5 140.02,260.56 140.16,260.64 140.16,260.7 
			140.3,260.78 140.3,260.84 140.44,260.92 140.44,260.98 140.58,261.06 140.58,261.12 140.72,261.2 140.72,261.26 140.86,261.34 
			140.86,261.4 141,261.48 141,261.54 141.14,261.62 141.14,261.68 141.28,261.76 141.28,261.82 141.42,261.9 141.42,261.96 
			141.56,262.04 141.56,262.1 141.7,262.18 141.7,262.24 141.84,262.32 141.84,262.38 141.98,262.46 141.98,262.52 142.12,262.6 
			142.12,262.66 142.26,262.74 142.26,262.8 142.4,262.88 142.4,262.94 142.54,263.02 142.54,263.08 142.68,263.16 142.68,263.22 
			142.82,263.3 142.82,263.36 142.96,263.44 142.96,263.5 143.1,263.58 143.1,263.64 143.24,263.72 143.24,263.78 143.38,263.86 
			143.38,263.92 143.52,264 143.52,264.06 143.66,264.14 143.66,264.2 143.8,264.28 143.8,264.34 143.94,264.42 143.94,264.48 
			144.08,264.56 144.08,264.62 144.22,264.7 144.22,264.76 144.36,264.84 144.36,264.9 144.5,264.98 144.5,265.04 144.64,265.12 
			144.64,265.18 144.78,265.26 144.78,265.32 144.92,265.4 144.92,265.46 145.06,265.54 145.06,265.6 145.2,265.68 145.2,265.74 
			145.34,265.82 145.34,265.88 145.48,265.96 145.48,266.02 145.62,266.1 145.62,266.16 145.76,266.24 145.76,266.3 145.9,266.38 
			145.9,266.44 146.04,266.52 146.04,266.58 146.18,266.66 146.18,266.72 146.32,266.8 146.32,266.86 146.46,266.94 146.46,267 
			146.6,267.08 146.6,267.14 146.74,267.22 146.74,267.28 146.88,267.36 146.88,267.42 147.02,267.5 147.02,267.56 147.16,267.65 
			147.16,267.7 147.3,267.79 147.3,267.84 147.44,267.93 147.44,267.98 147.58,268.07 147.58,268.12 147.72,268.21 147.72,268.26 
			147.86,268.35 147.86,268.4 148,268.49 148,268.54 148.14,268.63 148.14,268.68 148.28,268.77 148.28,268.82 148.42,268.91 
			148.42,268.96 148.56,269.05 148.56,269.1 148.7,269.19 148.7,269.24 148.84,269.33 148.84,269.38 148.98,269.47 148.98,269.52 
			149.12,269.61 149.12,269.67 149.26,269.75 149.26,269.81 149.4,269.89 149.4,269.95 149.54,270.03 149.54,270.09 149.68,270.17 
			149.68,270.23 149.82,270.31 149.82,270.37 149.96,270.45 149.96,270.51 150.1,270.59 150.1,270.65 150.24,270.73 150.24,270.79 
			150.38,270.87 150.38,270.93 150.52,271.01 150.52,271.07 150.66,271.15 150.66,271.21 150.8,271.29 150.8,271.35 150.94,271.43 
			150.94,271.49 151.08,271.57 151.08,271.63 151.22,271.71 151.22,271.77 151.36,271.85 151.36,271.91 151.5,271.99 151.5,272.05 
			151.64,272.13 151.64,272.19 151.78,272.27 151.78,272.33 151.92,272.41 151.92,272.47 152.06,272.55 152.06,272.61 152.2,272.69 
			152.2,272.75 152.34,272.83 152.34,272.89 152.48,272.97 152.48,273.03 152.62,273.11 152.62,273.17 152.76,273.25 152.76,273.31 
			152.9,273.39 152.9,273.45 153.04,273.53 153.04,273.59 153.18,273.67 153.18,273.73 153.32,273.81 153.32,273.87 153.46,273.95 
			153.46,274.01 153.6,274.09 153.6,274.15 153.74,274.23 153.74,274.29 153.88,274.37 153.88,274.43 154.02,274.51 154.02,274.57 
			154.16,274.65 154.16,274.71 154.3,274.79 154.3,274.85 154.44,274.93 154.44,274.99 154.58,275.07 154.58,275.13 154.72,275.21 
			154.72,275.27 154.86,275.35 154.86,275.41 155,275.49 155,275.55 155.14,275.63 155.14,275.69 155.28,275.77 155.28,275.83 
			155.42,275.91 155.42,275.97 155.56,276.05 155.56,276.11 155.7,276.19 155.7,276.25 155.84,276.33 155.84,276.39 155.98,276.47 
			155.98,276.53 156.12,276.61 156.12,276.67 156.26,276.75 156.26,276.81 156.4,276.89 156.4,276.95 156.54,277.03 156.54,277.09 
			156.68,277.17 156.68,277.23 156.82,277.31 156.82,277.37 156.96,277.45 156.96,277.51 157.1,277.59 157.1,277.65 157.24,277.73 
			157.24,277.79 157.39,277.87 157.39,277.93 157.53,278.01 157.53,278.07 157.67,278.15 157.67,278.21 157.81,278.29 
			157.81,278.35 157.95,278.43 157.95,278.49 158.09,278.57 158.09,278.63 158.23,278.71 158.23,278.77 158.37,278.85 
			158.37,278.91 158.51,278.99 158.51,279.05 158.65,279.13 158.65,279.19 158.79,279.27 158.79,279.33 158.93,279.41 
			158.93,279.47 159.07,279.55 159.07,279.61 159.21,279.69 159.21,279.75 159.35,279.83 159.35,279.89 159.49,279.97 
			159.49,280.03 159.63,280.11 159.63,280.17 159.77,280.25 159.77,280.31 159.91,280.39 159.91,280.45 160.05,280.53 
			160.05,280.59 160.19,280.67 160.19,280.73 160.33,280.81 160.33,280.87 160.47,280.95 160.47,281.01 160.61,281.09 
			160.61,281.15 160.75,281.23 160.75,281.29 160.89,281.37 160.89,281.43 161.03,281.51 161.03,281.57 161.17,281.65 
			161.17,281.71 161.31,281.79 161.31,281.85 161.45,281.93 161.45,281.99 161.59,282.07 161.59,282.13 161.73,282.21 
			161.73,282.27 161.87,282.35 161.87,282.41 162.01,282.49 162.01,282.55 162.15,282.63 162.15,282.69 162.29,282.77 
			162.29,282.83 162.43,282.91 162.43,282.97 162.57,283.05 162.57,283.11 162.71,283.19 162.71,283.25 162.85,283.33 
			162.85,283.39 162.99,283.47 162.99,283.53 163.13,283.61 163.13,283.67 163.27,283.75 163.27,283.81 163.41,283.89 
			163.41,283.95 163.55,284.03 163.55,284.09 163.69,284.17 163.69,284.23 163.83,284.31 163.83,284.37 163.97,284.45 
			163.97,284.51 164.11,284.59 164.11,284.65 164.25,284.73 164.25,284.79 164.39,284.87 164.39,284.93 164.53,285.01 
			164.53,285.07 164.67,285.15 164.67,285.21 164.81,285.29 164.81,285.35 164.95,285.43 164.95,285.49 165.09,285.57 
			165.09,285.63 165.23,285.71 165.23,285.77 165.37,285.85 165.37,285.91 165.51,285.99 165.51,286.05 165.65,286.13 
			165.65,286.19 165.79,286.27 165.79,286.33 165.93,286.41 165.93,286.47 166.07,286.55 166.07,286.61 166.21,286.69 
			166.21,286.75 166.35,286.83 166.35,286.89 166.49,286.97 166.49,287.03 166.63,287.11 166.63,287.17 166.77,287.25 
			166.77,287.31 166.91,287.39 166.91,287.45 167.05,287.53 167.05,287.59 167.19,287.67 167.19,287.73 167.33,287.81 
			167.33,287.87 167.47,287.95 167.47,288.01 167.61,288.09 167.61,288.15 167.75,288.23 167.75,288.29 167.89,288.37 
			167.89,288.43 168.03,288.51 168.03,288.57 168.17,288.65 168.17,288.71 168.31,288.79 168.31,288.85 168.45,288.93 
			168.45,288.99 168.59,289.07 168.59,289.13 168.73,289.21 168.73,289.27 168.87,289.35 168.87,289.41 169.01,289.49 
			169.01,289.55 169.15,289.63 169.15,289.69 169.29,289.77 169.29,289.83 169.43,289.91 169.43,289.97 169.57,290.05 
			169.57,290.11 169.71,290.19 169.71,290.25 169.85,290.33 169.85,290.39 169.99,290.47 169.99,290.53 170.13,290.61 
			170.13,290.67 170.27,290.75 170.27,290.81 170.41,290.89 170.41,290.95 170.55,291.03 170.55,291.09 170.69,291.17 
			170.69,291.23 170.83,291.32 170.83,291.37 170.97,291.46 170.97,291.51 171.11,291.6 171.11,291.65 171.25,291.74 171.25,291.79 
			171.39,291.88 171.39,291.93 171.53,292.02 171.53,292.07 204.05,310.85 204.05,251.47 204.06,251.47 204.17,251.61 204.2,251.61 
			204.31,251.75 204.34,251.75 204.45,251.89 204.48,251.89 204.59,252.03 204.62,252.03 204.73,252.17 204.76,252.17 
			204.87,252.31 204.9,252.31 205.01,252.45 205.04,252.45 205.15,252.59 205.18,252.59 205.29,252.73 205.32,252.73 205.44,252.87 
			205.46,252.87 205.58,253.01 205.6,253.01 205.72,253.15 205.74,253.15 205.86,253.29 205.88,253.29 206,253.43 206.02,253.43 
			206.14,253.57 206.16,253.57 206.28,253.71 206.3,253.71 206.42,253.85 206.44,253.85 206.56,253.99 206.58,253.99 206.7,254.13 
			206.72,254.13 206.84,254.27 206.86,254.27 206.98,254.41 207,254.41 207.12,254.55 207.14,254.55 207.26,254.69 207.28,254.69 
			207.4,254.83 207.42,254.83 207.54,254.97 207.56,254.97 207.68,255.11 207.7,255.11 207.82,255.25 207.84,255.25 207.96,255.39 
			207.98,255.39 208.1,255.53 208.12,255.53 208.24,255.67 208.26,255.67 208.38,255.81 208.4,255.81 208.52,255.95 208.54,255.95 
			208.66,256.09 208.68,256.09 208.8,256.23 208.82,256.23 208.94,256.37 208.96,256.37 209.08,256.51 209.1,256.51 209.22,256.65 
			209.24,256.65 209.36,256.79 209.38,256.79 209.5,256.93 209.52,256.93 209.64,257.07 209.66,257.07 209.78,257.21 209.8,257.21 
			209.92,257.35 209.94,257.35 210.06,257.49 210.08,257.49 210.2,257.63 210.22,257.63 210.34,257.77 210.36,257.77 210.48,257.91 
			210.5,257.91 210.62,258.05 210.64,258.05 210.76,258.19 210.78,258.19 210.9,258.33 210.92,258.33 211.04,258.47 211.06,258.47 
			211.18,258.61 211.2,258.61 211.32,258.75 211.34,258.75 211.46,258.89 211.48,258.89 211.6,259.03 211.62,259.03 211.74,259.17 
			211.76,259.17 211.88,259.31 211.9,259.31 212.02,259.45 212.04,259.45 212.16,259.59 212.18,259.59 212.3,259.73 212.32,259.73 
			212.44,259.87 212.46,259.87 212.58,260.01 212.6,260.01 212.72,260.15 212.74,260.15 212.86,260.29 212.88,260.29 213,260.43 
			213.02,260.43 213.14,260.57 213.16,260.57 213.28,260.71 213.3,260.71 213.42,260.85 213.44,260.85 213.56,260.99 213.58,260.99 
			213.7,261.13 213.72,261.13 213.84,261.27 213.86,261.27 213.98,261.41 214,261.41 214.12,261.55 214.14,261.55 214.26,261.69 
			214.29,261.69 214.4,261.83 214.43,261.83 214.54,261.97 214.57,261.97 214.68,262.11 214.71,262.11 214.82,262.25 214.85,262.25 
			214.96,262.39 214.99,262.39 215.1,262.53 215.13,262.53 215.24,262.67 215.27,262.67 215.38,262.81 215.41,262.81 215.52,262.95 
			215.55,262.95 215.66,263.1 215.69,263.1 215.8,263.24 215.83,263.24 215.94,263.38 215.97,263.38 216.08,263.52 216.11,263.52 
			216.22,263.66 216.25,263.66 216.36,263.8 216.39,263.8 216.5,263.94 216.53,263.94 216.64,264.08 216.67,264.08 216.78,264.22 
			216.81,264.22 216.92,264.36 216.95,264.36 217.06,264.5 217.09,264.5 217.2,264.64 217.23,264.64 217.34,264.78 217.37,264.78 
			217.48,264.92 217.51,264.92 217.62,265.06 217.65,265.06 217.76,265.2 217.79,265.2 217.9,265.34 217.93,265.34 218.04,265.48 
			218.07,265.48 218.18,265.62 218.21,265.62 218.32,265.76 218.35,265.76 218.46,265.9 218.49,265.9 218.6,266.04 218.63,266.04 
			218.74,266.18 218.77,266.18 218.88,266.32 218.91,266.32 219.02,266.46 219.05,266.46 219.16,266.6 219.19,266.6 219.3,266.74 
			219.33,266.74 219.44,266.88 219.47,266.88 219.58,267.02 219.61,267.02 219.72,267.16 219.75,267.16 219.86,267.3 219.89,267.3 
			220,267.44 220.03,267.44 220.14,267.58 220.17,267.58 220.28,267.72 220.31,267.72 220.42,267.86 220.45,267.86 220.56,268 
			220.59,268 220.7,268.14 220.73,268.14 220.84,268.28 220.87,268.28 220.98,268.42 221.01,268.42 221.12,268.56 221.15,268.56 
			221.26,268.7 221.29,268.7 221.4,268.84 221.43,268.84 221.54,268.98 221.57,268.98 221.68,269.12 221.71,269.12 221.82,269.26 
			221.85,269.26 221.96,269.4 221.99,269.4 222.1,269.54 222.13,269.54 222.24,269.68 222.27,269.68 222.38,269.82 222.41,269.82 
			222.52,269.96 222.55,269.96 222.66,270.1 222.69,270.1 222.8,270.24 222.83,270.24 222.94,270.38 222.97,270.38 223.08,270.52 
			223.11,270.52 223.22,270.66 223.25,270.66 223.36,270.8 223.39,270.8 223.5,270.94 223.53,270.94 223.64,271.08 223.67,271.08 
			223.78,271.22 223.81,271.22 223.92,271.36 223.95,271.36 224.06,271.5 224.09,271.5 224.2,271.64 224.23,271.64 224.34,271.78 
			224.37,271.78 224.48,271.92 224.51,271.92 224.62,272.06 224.65,272.06 224.76,272.2 224.79,272.2 224.9,272.34 224.93,272.34 
			225.04,272.48 225.07,272.48 225.18,272.62 225.21,272.62 225.32,272.76 225.35,272.76 225.46,272.9 225.49,272.9 225.6,273.04 
			225.63,273.04 225.74,273.18 225.77,273.18 225.88,273.32 225.91,273.32 226.02,273.46 226.05,273.46 226.16,273.6 226.19,273.6 
			226.3,273.74 226.33,273.74 226.44,273.88 226.47,273.88 226.58,274.02 226.61,274.02 226.72,274.16 226.75,274.16 226.86,274.3 
			226.89,274.3 227,274.44 227.03,274.44 227.14,274.58 227.17,274.58 227.28,274.72 227.31,274.72 227.42,274.86 227.45,274.86 
			227.56,275 227.59,275 227.7,275.14 227.73,275.14 227.84,275.28 227.87,275.28 227.98,275.42 228.01,275.42 228.12,275.56 
			228.15,275.56 228.26,275.7 228.29,275.7 228.4,275.84 228.43,275.84 228.54,275.98 228.57,275.98 228.68,276.12 228.71,276.12 
			228.82,276.26 228.85,276.26 228.97,276.4 228.99,276.4 229.11,276.54 229.13,276.54 229.25,276.68 229.27,276.68 229.39,276.82 
			229.41,276.82 229.53,276.96 229.55,276.96 229.67,277.1 229.69,277.1 229.81,277.24 229.83,277.24 229.95,277.38 229.97,277.38 
			230.09,277.52 230.11,277.52 230.23,277.66 230.25,277.66 230.37,277.8 230.39,277.8 230.51,277.94 230.53,277.94 230.65,278.08 
			230.67,278.08 230.79,278.22 230.81,278.22 230.93,278.36 230.95,278.36 231.07,278.5 231.09,278.5 231.21,278.64 231.23,278.64 
			231.35,278.78 231.37,278.78 231.49,278.92 231.51,278.92 231.63,279.06 231.65,279.06 231.77,279.2 231.79,279.2 231.91,279.34 
			231.93,279.34 232.05,279.48 232.07,279.48 232.19,279.62 232.21,279.62 232.33,279.76 232.35,279.76 232.47,279.9 232.49,279.9 
			232.61,280.04 232.63,280.04 232.75,280.18 232.77,280.18 232.89,280.32 232.91,280.32 233.03,280.46 233.05,280.46 233.17,280.6 
			233.19,280.6 233.31,280.74 233.33,280.74 233.45,280.88 233.47,280.88 233.59,281.02 233.61,281.02 233.73,281.16 233.75,281.16 
			233.87,281.3 233.89,281.3 234.01,281.44 234.03,281.44 234.15,281.58 234.17,281.58 234.29,281.72 234.31,281.72 234.43,281.86 
			234.45,281.86 234.57,282 234.59,282 234.71,282.14 234.73,282.14 234.85,282.28 234.87,282.28 234.99,282.42 235.01,282.42 
			235.13,282.56 235.15,282.56 235.27,282.7 235.29,282.7 235.41,282.84 235.43,282.84 235.55,282.98 235.57,282.98 235.69,283.12 
			235.71,283.12 235.83,283.26 235.85,283.26 235.97,283.4 235.99,283.4 236.11,283.54 236.13,283.54 236.25,283.68 236.27,283.68 
			236.39,283.82 236.41,283.82 236.53,283.96 239.36,283.96 241.65,281.15 241.65,281.33 241.79,281.25 241.79,281.47 
			241.93,281.39 241.93,281.61 242.07,281.53 242.07,281.75 242.21,281.67 242.21,281.89 242.35,281.81 242.35,282.03 
			242.49,281.95 242.49,282.17 242.63,282.09 242.63,282.31 242.77,282.23 242.77,282.45 242.91,282.37 242.91,282.59 
			243.05,282.51 243.05,282.73 243.19,282.65 243.19,282.87 243.33,282.79 243.33,283.01 243.47,282.93 243.47,283.15 
			243.61,283.07 243.61,283.29 243.75,283.21 243.75,283.43 243.89,283.35 243.89,283.57 244.03,283.49 244.03,283.71 
			244.17,283.63 244.17,283.85 244.31,283.77 244.31,283.99 244.45,283.91 244.45,284.13 244.59,284.05 244.59,284.27 
			244.73,284.19 244.73,284.41 244.87,284.33 244.87,284.55 245.01,284.47 245.01,284.69 245.15,284.61 245.15,284.83 
			245.29,284.75 245.29,284.97 245.43,284.89 245.43,285.11 245.57,285.03 245.57,285.25 245.71,285.17 245.71,285.39 
			245.85,285.31 245.85,285.53 245.99,285.45 245.99,285.67 246.13,285.59 246.13,285.81 246.27,285.73 246.27,285.95 
			246.41,285.87 246.41,286.09 246.55,286.01 246.55,286.23 246.69,286.15 246.69,286.37 246.83,286.29 246.83,286.51 
			246.97,286.43 246.97,286.65 247.11,286.57 247.11,286.79 247.25,286.71 247.25,286.93 247.39,286.85 247.39,287.07 
			247.53,286.99 247.53,287.21 247.67,287.13 247.67,287.35 247.81,287.27 247.81,287.49 247.95,287.41 247.95,287.63 
			248.09,287.55 248.09,287.77 248.23,287.69 248.23,287.91 248.37,287.83 248.37,288.05 248.51,287.97 248.51,288.19 
			248.65,288.11 248.65,288.33 248.79,288.25 248.79,288.47 248.93,288.39 248.93,288.61 249.07,288.53 249.07,288.75 
			249.21,288.67 249.21,288.89 249.35,288.81 249.35,289.03 249.49,288.95 249.49,289.17 249.63,289.09 249.63,289.31 
			249.77,289.23 249.77,289.45 249.91,289.37 249.91,289.59 250.05,289.51 250.05,289.73 250.19,289.65 250.19,289.87 
			250.33,289.79 250.33,290.01 250.47,289.93 250.47,290.15 250.61,290.07 250.61,290.29 250.75,290.21 250.75,290.43 
			250.89,290.35 250.89,290.57 251.03,290.49 251.03,290.71 251.17,290.63 251.17,290.85 251.31,290.77 251.31,290.99 
			251.45,290.91 251.45,291.13 251.59,291.05 251.59,291.27 251.73,291.19 251.73,291.41 251.87,291.33 251.87,291.55 
			252.01,291.47 252.01,291.69 252.15,291.61 252.15,291.83 252.29,291.75 252.29,291.97 252.43,291.89 252.43,292.11 
			252.57,292.03 252.57,292.25 252.71,292.17 252.71,292.39 252.85,292.31 252.85,292.53 252.99,292.45 252.99,292.67 
			253.13,292.59 253.13,292.81 253.27,292.73 253.27,292.95 253.41,292.87 253.41,293.09 253.55,293.01 253.55,293.23 
			253.69,293.15 253.69,293.37 253.83,293.29 253.83,293.51 253.97,293.43 253.97,293.65 254.11,293.57 254.11,293.79 
			254.25,293.71 254.25,293.93 254.39,293.85 254.39,294.07 254.53,293.99 254.53,294.21 254.67,294.13 254.67,294.35 
			254.81,294.27 254.81,294.49 254.95,294.41 254.95,294.63 255.09,294.55 255.09,294.78 255.23,294.69 255.23,294.92 
			255.37,294.83 255.37,295.06 255.51,294.97 255.51,295.2 255.65,295.11 255.65,295.34 255.79,295.25 255.79,295.48 255.93,295.39 
			255.93,295.62 256.07,295.53 256.07,295.76 256.21,295.67 256.21,295.9 256.35,295.81 256.35,296.04 256.49,295.95 256.49,296.18 
			256.63,296.09 256.63,296.32 256.77,296.23 256.77,296.46 256.91,296.37 256.91,296.6 257.05,296.51 257.05,296.74 257.19,296.65 
			257.19,296.88 257.33,296.8 257.33,297.02 257.47,296.94 257.47,297.16 257.61,297.08 257.61,297.3 257.75,297.22 257.75,297.44 
			257.89,297.36 257.89,297.58 258.03,297.5 258.03,297.72 258.17,297.64 258.17,297.86 258.31,297.78 258.31,298 258.45,297.92 
			258.45,298.14 258.59,298.06 258.59,298.28 258.73,298.2 258.73,298.42 258.87,298.34 258.87,298.56 259.01,298.48 259.01,298.7 
			259.15,298.62 259.15,298.84 259.29,298.76 259.29,298.98 259.43,298.9 259.43,299.12 259.57,299.04 259.57,299.26 259.71,299.18 
			259.71,299.4 259.85,299.32 259.85,299.54 259.99,299.46 259.99,299.68 260.13,299.6 260.13,299.82 260.27,299.74 260.27,299.96 
			260.42,299.88 260.42,300.1 260.56,300.02 260.56,300.24 260.7,300.16 260.7,300.38 260.84,300.3 260.84,300.52 260.98,300.44 
			260.98,300.66 261.12,300.58 261.12,300.8 261.26,300.72 261.26,300.94 261.4,300.86 261.4,301.08 261.54,301 261.54,301.22 
			261.68,301.14 261.68,301.36 261.82,301.28 261.82,301.5 261.96,301.42 261.96,301.64 262.1,301.56 262.1,301.78 262.24,301.7 
			262.24,301.92 262.38,301.84 262.38,302.06 262.52,301.98 262.52,302.2 262.66,302.12 262.66,302.34 262.8,302.26 262.8,302.48 
			262.94,302.4 262.94,302.62 263.08,302.54 263.08,302.76 263.22,302.68 263.22,302.9 263.36,302.82 263.36,303.04 263.5,302.96 
			263.5,303.18 263.64,303.1 263.64,303.32 263.78,303.24 263.78,303.46 263.92,303.38 263.92,303.6 264.06,303.52 264.06,303.74 
			264.2,303.66 264.2,303.88 264.34,303.8 264.34,304.02 264.48,303.94 264.48,304.16 264.62,304.08 264.62,304.3 264.76,304.22 
			264.76,304.44 264.9,304.36 264.9,304.58 265.04,304.5 265.04,304.72 265.18,304.64 265.18,304.86 265.32,304.78 265.32,305 
			265.46,304.92 265.46,305.14 265.6,305.06 265.6,305.28 265.74,305.2 265.74,305.42 265.88,305.34 265.88,305.56 266.02,305.48 
			266.02,305.7 266.16,305.62 266.16,305.84 266.3,305.76 266.3,305.98 266.44,305.9 266.44,306.12 266.58,306.04 266.58,306.26 
			266.72,306.18 266.72,306.4 266.86,306.32 266.86,306.54 267,306.46 267,306.68 267.14,306.6 267.14,306.82 267.28,306.74 
			267.28,306.96 267.42,306.88 267.42,307.1 267.56,307.02 267.56,307.24 267.7,307.16 267.7,307.38 267.84,307.3 267.84,307.52 
			267.98,307.44 267.98,307.66 268.12,307.58 268.12,307.8 268.26,307.72 268.26,307.94 268.4,307.86 268.4,308.08 268.54,308 
			268.54,308.22 268.68,308.14 268.68,308.36 268.82,308.28 268.82,308.5 268.96,308.42 268.96,308.64 269.1,308.56 269.1,308.78 
			269.24,308.7 269.24,308.92 269.38,308.84 269.38,309.06 269.52,308.98 269.52,309.2 269.66,309.12 269.66,309.34 269.8,309.26 
			269.8,309.48 269.94,309.4 269.94,309.62 270.08,309.54 270.08,309.76 270.22,309.68 270.22,309.9 270.36,309.82 270.36,310.04 
			270.5,309.96 270.5,310.18 270.64,310.1 270.64,310.32 270.78,310.24 270.78,310.46 270.92,310.38 270.92,310.6 271.06,310.52 
			271.06,310.74 271.2,310.66 271.2,310.88 271.34,310.8 271.34,311.02 271.48,310.94 271.48,311.16 271.62,311.08 271.62,311.3 
			271.76,311.22 271.76,311.44 305.31,292.07 305.31,214.84 		"/>
	</g>
	<polygon id="XMLID_1106_" class="st3" points="96.33,143.76 99.16,143.76 131.56,103.81 131.56,171.24 165.11,151.88 165.11,74.64 
		132.96,56.08 98.13,98.39 63.47,56.08 31.33,74.64 31.33,151.88 63.85,170.65 63.85,103.81 	"/>
	<g id="XMLID_1088_">
		<path id="XMLID_1103_" class="st215" d="M714.96,244.56h12.43c4.75,0,8.4,1.07,10.93,3.2c2.53,2.13,3.79,5.04,3.79,8.72
			c0,3.72-1.28,6.67-3.82,8.85c-2.55,2.17-6.29,3.26-11.22,3.26h-8.62v21.08h-3.49V244.56z M718.45,247.46v18.21h8.39
			c3.77,0,6.63-0.8,8.59-2.39c1.96-1.59,2.94-3.84,2.94-6.75c0-2.78-0.96-4.98-2.87-6.62c-1.92-1.64-4.66-2.45-8.23-2.45H718.45z"/>
		<path id="XMLID_1100_" class="st215" d="M754.02,244.56h11.56c4.84,0,8.54,1.05,11.1,3.15c2.56,2.1,3.84,4.93,3.84,8.51
			c0,5.21-2.86,8.87-8.59,10.98c1.49,0.71,3.49,3,6,6.88l10.2,15.59h-4.13l-7.86-12.36c-2.62-4.13-4.67-6.71-6.13-7.74
			c-1.46-1.02-3.6-1.53-6.42-1.53h-6.1v21.63h-3.49V244.56z M757.51,247.46v17.66h7.49c3.81,0,6.72-0.77,8.73-2.31
			c2.01-1.54,3.02-3.72,3.02-6.54c0-2.78-1.02-4.94-3.07-6.49c-2.04-1.55-4.98-2.32-8.81-2.32H757.51z"/>
		<path id="XMLID_1097_" class="st215" d="M818.16,243.97c6.67,0,12.33,2.24,16.96,6.73c4.64,4.49,6.96,9.96,6.96,16.41
			c0,6.43-2.32,11.9-6.96,16.38c-4.64,4.49-10.29,6.73-16.96,6.73c-6.65,0-12.28-2.24-16.9-6.73c-4.62-4.49-6.92-9.95-6.92-16.38
			c0-6.46,2.31-11.93,6.92-16.41C805.88,246.22,811.51,243.97,818.16,243.97z M818.29,287.01c5.62,0,10.36-1.92,14.22-5.76
			c3.86-3.84,5.8-8.55,5.8-14.12c0-5.59-1.93-10.31-5.8-14.15c-3.86-3.84-8.6-5.76-14.22-5.76c-5.64,0-10.41,1.92-14.32,5.76
			c-3.91,3.84-5.86,8.56-5.86,14.15c0,5.57,1.95,10.28,5.86,14.12C807.88,285.09,812.65,287.01,818.29,287.01z"/>
		<path id="XMLID_1095_" class="st215" d="M859.6,244.56v45.1c0,4.97-0.94,8.4-2.81,10.3c-1.87,1.89-4.09,2.84-6.65,2.84
			c-0.6,0-1.3-0.04-2.1-0.13l-0.32-3.29c0.73,0.17,1.42,0.26,2.07,0.26c4.22,0,6.33-3.01,6.33-9.04v-46.03H859.6z"/>
		<path id="XMLID_1093_" class="st215" d="M899.63,244.56v2.91h-21.11v18.04h20.56v2.94h-20.56v18.3h21.63v2.91h-25.12v-45.1H899.63
			z"/>
		<path id="XMLID_1091_" class="st215" d="M950.21,247.75v3.81c-5.47-2.91-10.83-4.36-16.08-4.36c-5.59,0-10.28,1.91-14.04,5.71
			c-3.77,3.81-5.65,8.57-5.65,14.27c0,5.77,1.89,10.51,5.68,14.24c3.79,3.72,8.62,5.59,14.49,5.59c4.91,0,10.26-1.54,16.04-4.62V286
			c-5.34,2.82-10.66,4.23-15.98,4.23c-6.87,0-12.58-2.2-17.16-6.6c-4.57-4.4-6.86-9.88-6.86-16.45c0-6.61,2.34-12.13,7.01-16.56
			c4.67-4.43,10.23-6.65,16.69-6.65C939.44,243.97,944.72,245.23,950.21,247.75z"/>
		<path id="XMLID_1089_" class="st215" d="M995.07,244.56v2.91h-16.92v42.19h-3.52v-42.19h-16.92v-2.91H995.07z"/>
	</g>
	<g id="XMLID_1056_">
		<path id="XMLID_1085_" class="st215" d="M284.49,23.8c11,0,20.32,3.7,27.97,11.1c7.64,7.4,11.47,16.42,11.47,27.06
			c0,10.61-3.82,19.61-11.47,27.01c-7.65,7.4-16.97,11.1-27.97,11.1c-10.96,0-20.25-3.7-27.86-11.1
			c-7.61-7.4-11.42-16.4-11.42-27.01c0-10.64,3.81-19.66,11.42-27.06C264.24,27.5,273.52,23.8,284.49,23.8z M284.7,94.74
			c9.26,0,17.07-3.17,23.44-9.5c6.37-6.33,9.55-14.09,9.55-23.28c0-9.22-3.18-17-9.55-23.34c-6.37-6.33-14.18-9.5-23.44-9.5
			c-9.3,0-17.16,3.17-23.6,9.5c-6.44,6.33-9.66,14.11-9.66,23.34c0,9.19,3.22,16.95,9.66,23.28
			C267.54,91.57,275.4,94.74,284.7,94.74z"/>
		<path id="XMLID_1082_" class="st215" d="M337.92,24.76h20.49c7.84,0,13.84,1.76,18.01,5.27c4.17,3.51,6.25,8.3,6.25,14.37
			c0,6.14-2.1,11-6.31,14.58c-4.2,3.58-10.37,5.38-18.49,5.38h-14.21V99.1h-5.75V24.76z M343.66,29.55v30.01h13.84
			c6.21,0,10.93-1.31,14.16-3.94c3.23-2.63,4.84-6.33,4.84-11.12c0-4.58-1.58-8.21-4.74-10.91c-3.16-2.7-7.68-4.04-13.57-4.04
			H343.66z"/>
		<path id="XMLID_1080_" class="st215" d="M434.24,24.76v4.79h-34.8V59.3h33.9v4.84h-33.9v30.17h35.65v4.79h-41.4V24.76H434.24z"/>
		<path id="XMLID_1078_" class="st215" d="M513.9,24.76V99.1h-4.73l-56.52-64.98V99.1h-5.75V24.76h4.87l56.38,64.98V24.76H513.9z"/>
		<path id="XMLID_1076_" class="st216" d="M334.72,213.85h-22.24v-42.73l-20.06,24.75h-1.76l-20.12-24.75v42.73h-21.61V140.1h20.17
			l22.67,27.67l22.78-27.67h20.17V213.85z"/>
		<path id="XMLID_1073_" class="st216" d="M434.34,213.85h-22.78l-6.01-14.95h-32.04l-6.12,14.95h-22.78l32.62-73.76h24.59
			L434.34,213.85z M400.45,186.08l-10.8-26.93l-10.91,26.93H400.45z"/>
		<path id="XMLID_1071_" class="st216" d="M466.49,213.85h-22.24V140.1h22.24V213.85z"/>
		<path id="XMLID_1069_" class="st216" d="M565.2,213.85h-19.8l-38.26-41.08v41.08h-22.03V140.1h19.74l38.16,40.87V140.1h22.19
			V213.85z"/>
		<path id="XMLID_1067_" class="st216" d="M636.57,184h-30.6v29.85h-22.24V140.1h52.84v14.79h-30.6v14.26h30.6V184z"/>
		<path id="XMLID_1064_" class="st216" d="M722.94,213.85h-23.89l-5.8-13.09c-2.13-4.79-4.04-8.29-5.75-10.51
			c-1.7-2.22-3.36-3.64-4.97-4.26c-1.62-0.62-3.7-0.93-6.25-0.93h-2.5v28.79h-22.24V140.1h37.84c6.1,0,11.1,1.24,15.01,3.73
			c3.9,2.48,6.71,5.5,8.43,9.05c1.72,3.55,2.58,6.92,2.58,10.11c0,3.73-0.72,6.87-2.15,9.45c-1.44,2.57-2.95,4.44-4.55,5.61
			c-1.6,1.17-3.39,2.29-5.38,3.35c2.38,1.38,4.34,3.02,5.88,4.92c1.54,1.9,3.65,5.74,6.31,11.52L722.94,213.85z M692.71,163.4
			c0-3.41-1.12-5.78-3.35-7.13c-2.24-1.35-5.87-2.02-10.91-2.02h-4.68v17.77h4.79c5.43,0,9.14-0.59,11.15-1.78
			C691.71,169.05,692.71,166.78,692.71,163.4z"/>
		<path id="XMLID_1061_" class="st216" d="M814.04,213.85h-22.78l-6.01-14.95h-32.04l-6.12,14.95h-22.78l32.62-73.76h24.59
			L814.04,213.85z M780.15,186.08l-10.8-26.93l-10.91,26.93H780.15z"/>
		<path id="XMLID_1059_" class="st216" d="M909.62,213.85h-22.24v-42.73l-20.06,24.75h-1.76l-20.12-24.75v42.73h-21.61V140.1h20.17
			l22.67,27.67l22.78-27.67h20.17V213.85z"/>
		<path id="XMLID_1057_" class="st216" d="M983.86,213.85h-55.61V140.1h54.71v14.79h-32.46v13.52h30.97v14.85h-30.97v15.75h33.37
			V213.85z"/>
	</g>
</g>
</svg>
